<svg width="2352" height="1810" viewBox="0 0 2352 1810" fill="none" xmlns="http://www.w3.org/2000/svg">
<g filter="url(#filter0_f_4715_599)">
<ellipse cx="215.586" cy="326.451" rx="215.586" ry="326.451" transform="matrix(-0.996762 -0.0804046 0.0810685 -0.996709 1916.89 1517.01)" fill="url(#paint0_linear_4715_599)"/>
</g>
<mask id="mask0_4715_599" style="mask-type:alpha" maskUnits="userSpaceOnUse" x="1304" y="669" width="657" height="1138">
<path d="M1960.88 669.354L1351.14 810.735L1304.07 1379.59L1326.93 1572.96L1635.19 1806.59L1899.59 1729.28L1947.34 1142.28L1960.88 669.354Z" fill="url(#paint1_linear_4715_599)"/>
</mask>
<g mask="url(#mask0_4715_599)">
</g>
<mask id="mask1_4715_599" style="mask-type:alpha" maskUnits="userSpaceOnUse" x="1263" y="717" width="729" height="1071">
<path d="M1908.53 1787.46C1631 1764.62 1276.98 1735.44 1263.07 1735.39L1345.86 717.422L1991.33 769.488L1908.53 1787.46Z" fill="url(#paint2_linear_4715_599)"/>
</mask>
<g mask="url(#mask1_4715_599)">
<path d="M1386.09 1314.7C1395.43 1199.88 1502.68 1111.37 1591.8 1118.56C1680.92 1125.75 1794.1 1181.66 1784.08 1304.84C1779.11 1365.89 1832.66 1444.81 1782.38 1513.76C1731.2 1583.94 1611.02 1557.35 1566.06 1553.72C1476.94 1546.54 1376.75 1429.51 1386.09 1314.7Z" fill="url(#paint3_linear_4715_599)"/>
<g filter="url(#filter1_f_4715_599)">
<path d="M1393.61 1316.69C1403.63 1193.55 1496.24 1112.32 1572.84 1118.5C1649.45 1124.68 1746.2 1179.25 1736.18 1302.38C1731.22 1363.4 1778.39 1441.78 1734.35 1511.2C1689.52 1581.87 1586.4 1556.66 1547.76 1553.54C1471.15 1547.36 1383.59 1439.82 1393.61 1316.69Z" fill="url(#paint4_linear_4715_599)"/>
</g>
<g filter="url(#filter2_f_4715_599)">
<path d="M1393.91 1312.96C1405.14 1174.95 1518.52 1084.67 1612.96 1092.29C1707.41 1099.91 1827.11 1161.98 1815.89 1299.99C1810.32 1368.38 1877.96 1457.42 1824.32 1534.88C1769.71 1613.73 1634.45 1583.89 1586.8 1580.05C1492.36 1572.43 1382.69 1450.97 1393.91 1312.96Z" fill="url(#paint5_linear_4715_599)"/>
</g>
<g filter="url(#filter3_f_4715_599)">
<path d="M1406.39 1297.93C1443.42 1129.41 1577.39 998.148 1687.93 1007.06C1798.46 1015.98 1910.92 1112.1 1897.46 1277.62C1890.79 1359.64 2002.68 1474.8 1939.71 1567.81C1875.61 1662.48 1726.69 1627.77 1670.93 1623.27C1560.4 1614.35 1363.5 1493.16 1406.39 1297.93Z" fill="url(#paint6_linear_4715_599)"/>
</g>
<g filter="url(#filter4_f_4715_599)">
<path d="M1455.8 1244.13C1470.29 1065.91 1625.19 923.977 1733.26 932.694C1841.33 941.412 1950.58 1043.96 1936.09 1222.17C1928.9 1310.49 1961.42 1421.05 1899.07 1521.63C1835.6 1624.02 1690.18 1587.85 1635.67 1583.45C1527.6 1574.73 1441.3 1422.35 1455.8 1244.13Z" fill="url(#paint7_linear_4715_599)"/>
</g>
<g filter="url(#filter5_f_4715_599)">
<path d="M1504.58 1178.25C1519.56 994.077 1678.11 847.276 1788.65 856.192C1899.18 865.108 2010.85 970.978 1995.87 1155.15C1988.45 1246.42 2021.62 1360.63 1957.75 1464.62C1892.74 1570.48 1744.03 1533.22 1688.27 1528.73C1577.74 1519.81 1489.6 1362.42 1504.58 1178.25Z" fill="url(#paint8_linear_4715_599)"/>
</g>
<g filter="url(#filter6_f_4715_599)">
<path d="M1475.73 1315.35C1488.84 1154.2 1645.78 1027.22 1756.32 1036.14C1866.85 1045.05 1979.5 1138.89 1966.39 1300.04C1959.89 1379.9 1981.41 1479.24 1918.65 1569.67C1854.76 1661.73 1705.79 1627.61 1650.03 1623.11C1539.5 1614.2 1462.63 1476.5 1475.73 1315.35Z" fill="url(#paint9_linear_4715_599)"/>
</g>
</g>
<g filter="url(#filter7_f_4715_599)">
<path d="M1835.61 1461.13C1800.68 1471.9 1722.1 1446.38 1639.66 1413.34L1530.15 1404.51C1434.9 1396.83 1472.99 1248 1538.39 1126.97C1603.8 1005.93 1600.87 1008.89 1693.2 1019.54C1785.53 1030.18 1744.21 965.292 1790.4 893.072C1836.6 820.851 1751.96 972.946 1816.27 1063.67C1880.58 1154.4 1899.09 1099.3 1829.8 1224.02C1760.51 1348.74 1792.11 1345.95 1825.61 1352.65C1859.12 1359.35 1862.22 1321.23 1893.06 1327.71C1923.89 1334.2 1908.29 1349.73 1887.11 1400.78C1865.94 1451.84 1870.54 1450.35 1835.61 1461.13Z" fill="#120ECF"/>
</g>
<mask id="mask2_4715_599" style="mask-type:alpha" maskUnits="userSpaceOnUse" x="1255" y="994" width="985" height="665">
<path d="M1255.93 1076.03L1453.25 1658.34L1922.69 1628.25L2079.68 1579.71L2239.84 1244.36L2141.04 994.007L1649.04 1025.82L1255.93 1076.03Z" fill="url(#paint10_linear_4715_599)"/>
</mask>
<g mask="url(#mask2_4715_599)">
<mask id="mask3_4715_599" style="mask-type:alpha" maskUnits="userSpaceOnUse" x="1307" y="1002" width="918" height="647">
<path d="M2185.93 1002.83C2203.6 1279.59 2222.77 1581.68 2224.57 1595.4L1345.77 1648.51L1307.14 1055.94L2185.93 1002.83Z" fill="url(#paint11_linear_4715_599)"/>
</mask>
<g mask="url(#mask3_4715_599)">
<path d="M1865.65 1556.14C1769.41 1562.37 1682.04 1468.49 1676.25 1379.63C1670.46 1290.78 1701.81 1171.65 1805.06 1164.97C1856.22 1161.67 1914.48 1098.25 1978.15 1138.57C2042.97 1179.61 2036.8 1301.71 2039.72 1346.53C2045.51 1435.39 1961.88 1549.92 1865.65 1556.14Z" fill="#02D1FE"/>
<g filter="url(#filter8_f_4715_599)">
<path d="M1866.3 1548.46C1763.1 1555.13 1684.22 1482.96 1679.72 1413.98C1675.22 1344.99 1708.26 1251.94 1811.47 1245.27C1862.61 1241.96 1921.59 1190.04 1984.59 1220.46C2048.73 1251.43 2040.79 1346.43 2043.06 1381.23C2047.56 1450.21 1969.51 1541.78 1866.3 1548.46Z" fill="#02D1FE"/>
</g>
<g filter="url(#filter9_f_4715_599)">
<path d="M1863.18 1548.66C1747.5 1556.14 1658.52 1466.48 1652.97 1381.3C1647.42 1296.12 1683.77 1181.51 1799.45 1174.03C1856.77 1170.32 1922 1098.73 1992.87 1136.75C2065.01 1175.44 2057.29 1299.84 2060.09 1342.81C2065.65 1427.99 1978.86 1541.18 1863.18 1548.66Z" fill="#02D1FE"/>
</g>
<g filter="url(#filter10_f_4715_599)">
<path d="M1847.97 1521.7C1703.65 1507.84 1577.38 1393.36 1570.2 1283.15C1563.01 1172.95 1627.73 1049.12 1766.46 1040.15C1835.21 1035.7 1915.76 909.877 2001.01 959.476C2087.8 1009.97 2092.69 1211.78 2096.31 1267.37C2103.5 1377.58 2015.16 1537.76 1847.97 1521.7Z" fill="#02D1FE"/>
</g>
<g filter="url(#filter11_f_4715_599)">
<path d="M1808.74 1496.19C1659.36 1505.85 1510.84 1372.86 1503.82 1265.11C1496.79 1157.36 1567.25 1035.84 1716.62 1026.18C1790.65 1021.39 1877.84 974.457 1969.29 1022.43C2062.37 1071.26 2120.6 1291.85 2124.14 1346.21C2131.16 1453.96 1958.12 1486.53 1808.74 1496.19Z" fill="#02D1FE"/>
</g>
<g filter="url(#filter12_f_4715_599)">
<path d="M1737.13 1457.63C1582.76 1467.61 1440.4 1330.98 1433.22 1220.77C1426.03 1110.56 1498.92 986.21 1653.29 976.228C1729.78 971.282 1853.72 1112.99 1948.18 1161.99C2044.34 1211.88 2033.11 1363.55 2036.73 1419.14C2043.92 1529.35 1891.5 1447.65 1737.13 1457.63Z" fill="#02D1FE"/>
</g>
<g filter="url(#filter13_f_4715_599)">
<path d="M1854.38 1467.65C1719.31 1476.38 1593.56 1338.67 1586.37 1228.47C1579.19 1118.26 1642 994.557 1777.07 985.824C1844 981.496 1923.36 946.925 2006.46 996.664C2091.05 1047.3 2082.45 1198.79 2086.07 1254.39C2093.26 1364.59 1989.45 1458.91 1854.38 1467.65Z" fill="#02D1FE"/>
</g>
</g>
</g>
<mask id="mask4_4715_599" style="mask-type:alpha" maskUnits="userSpaceOnUse" x="1143" y="506" width="1126" height="1296">
<path d="M1143.4 746.395C1408.11 668.541 1940.73 511.582 1953.58 506.572L2268.63 1562.12L1458.46 1801.94L1143.4 746.395Z" fill="url(#paint12_linear_4715_599)"/>
</mask>
<g mask="url(#mask4_4715_599)">
<path d="M2050.62 960.642C2059.2 1078.12 2021.28 1207.84 1936.33 1232.98C1851.38 1258.13 1725.52 1242.94 1687.4 1115.2C1668.5 1051.91 1612.32 1070.72 1632.17 982.998C1652.39 893.697 1773.44 876.808 1816.29 864.124C1901.24 838.978 2042.04 843.169 2050.62 960.642Z" fill="#438EFF"/>
<g filter="url(#filter14_f_4715_599)">
<path d="M2049.75 975.916C2043.3 1173.57 2026.85 1204.54 1953.84 1226.15C1880.82 1247.76 1770.62 1227.96 1732.51 1100.28C1713.62 1037 1663.97 1055.57 1677.9 969.635C1692.07 882.156 1798.93 869.462 1835.76 858.559C1908.78 836.944 2057.81 876.854 2049.75 975.916Z" fill="#438EFF"/>
</g>
<g filter="url(#filter15_f_4715_599)">
<path d="M2044.07 965.237C2064.24 1193.29 1968.19 1318.99 1878.17 1345.64C1788.14 1372.29 1702.64 1274.76 1659.93 1131.65C1638.76 1060.74 1581.99 1129.08 1601.67 1031.56C1621.71 932.281 1764.38 894.73 1809.79 881.287C1899.82 854.639 2001.36 822.132 2044.07 965.237Z" fill="#438EFF"/>
</g>
<g filter="url(#filter16_f_4715_599)">
<path d="M2038.34 984.909C2059.23 1185.68 1989.34 1411.01 1883.98 1442.2C1778.62 1473.39 1644.53 1355.46 1593.31 1183.83C1567.92 1098.78 1460.29 1156.9 1482.6 1040.33C1505.31 921.656 1655.99 902.508 1709.14 886.776C1814.49 855.588 2017.45 784.139 2038.34 984.909Z" fill="#438EFF"/>
</g>
<g filter="url(#filter17_f_4715_599)">
<path d="M2027.1 1135.84C2002.12 1442.92 1995.26 1448.41 1892.25 1478.9C1789.24 1509.39 1634.16 1438.52 1579 1253.72C1551.67 1162.15 1563.38 1134.25 1582.2 1010.27C1601.36 884.058 1777.26 865.406 1829.23 850.024C1932.24 819.531 2041.58 957.761 2027.1 1135.84Z" fill="#438EFF"/>
</g>
<g filter="url(#filter18_f_4715_599)">
<path d="M1993.81 1141.15C2050.81 1332.12 1961.04 1537.63 1855.68 1568.81C1750.33 1600 1606.64 1533.93 1549.64 1342.97C1521.4 1248.33 1469.59 1089.13 1488.5 961.164C1507.75 830.9 1756.91 928.364 1810.06 912.632C1915.42 881.444 1936.81 950.185 1993.81 1141.15Z" fill="#438EFF"/>
</g>
<g filter="url(#filter19_f_4715_599)">
<path d="M1967.69 992.56C2017.57 1159.66 1921.66 1344.61 1816.3 1375.8C1710.94 1406.99 1570.99 1353.39 1521.11 1186.29C1496.4 1103.49 1485.44 1168.97 1508.54 1055.06C1532.06 939.101 1682.55 919.336 1735.7 903.603C1841.06 872.416 1917.82 825.462 1967.69 992.56Z" fill="#438EFF"/>
</g>
</g>
<g opacity="0.6" filter="url(#filter20_f_4715_599)">
<path d="M1561.15 1185.04C1572.65 1043.72 1713.92 890.943 1786.1 896.765C1858.29 902.588 2031.16 810.838 1858.54 1148.64C1847.05 1289.96 1973.46 1468.77 1744.48 1408.56C1672.29 1402.73 1763.72 1261.78 1561.15 1185.04Z" fill="url(#paint13_linear_4715_599)"/>
</g>
<g filter="url(#filter21_f_4715_599)">
<ellipse cx="224.79" cy="331.314" rx="224.79" ry="331.314" transform="matrix(0.618528 -0.785762 -0.785445 -0.618931 1034.45 1317.62)" fill="#0285FE"/>
</g>
<mask id="mask5_4715_599" style="mask-type:alpha" maskUnits="userSpaceOnUse" x="374" y="395" width="1120" height="1057">
<path d="M374.156 764.281L910.128 395.07L1365.66 752.964L1493.03 904.398L1448.53 1302.35L1204.24 1451.37L734.774 1081.43L374.156 764.281Z" fill="url(#paint14_linear_4715_599)"/>
</mask>
<g mask="url(#mask5_4715_599)">
</g>
<mask id="mask6_4715_599" style="mask-type:alpha" maskUnits="userSpaceOnUse" x="426" y="326" width="1233" height="1173">
<path d="M1241.11 1498.51C1420.34 1270.08 1648.94 978.646 1658.74 967.958L844.592 326.405L426.958 856.957L1241.11 1498.51Z" fill="url(#paint15_linear_4715_599)"/>
</mask>
<g mask="url(#mask6_4715_599)">
<path d="M1259.5 770.86C1167.68 698.501 1026.15 719.373 968.491 792.627C910.828 865.881 872.327 991.305 970.848 1068.94C1019.67 1107.41 1040.4 1203.09 1127.12 1212.32C1215.4 1221.71 1280.62 1111.23 1309.71 1074.27C1367.37 1001.02 1351.33 843.219 1259.5 770.86Z" fill="#0285FE"/>
<g filter="url(#filter22_f_4715_599)">
<path d="M1255.67 778.002C1157.19 700.399 1031.42 715.095 981.854 778.061C932.288 841.028 904.399 952.939 1002.88 1030.54C1051.68 1069 1076.51 1159.42 1159.18 1173.75C1243.33 1188.34 1297.51 1091.89 1322.51 1060.13C1372.08 997.159 1354.15 855.605 1255.67 778.002Z" fill="#0285FE"/>
</g>
<g filter="url(#filter23_f_4715_599)">
<path d="M1252.68 775.652C1142.3 688.674 995.148 713.017 934.04 790.647C872.931 868.277 834.383 1002.97 944.761 1089.95C999.459 1133.05 1017.74 1246.53 1113.16 1259.08C1210.29 1271.85 1283.76 1147.56 1314.58 1108.39C1375.69 1030.76 1363.06 862.63 1252.68 775.652Z" fill="#0285FE"/>
</g>
<g filter="url(#filter24_f_4715_599)">
<path d="M1232.71 774.808C1081.44 686.464 889.3 698.199 817.781 789.055C746.262 879.911 738.114 1032.64 870.49 1136.95C936.089 1188.64 942.47 1354.11 1056.02 1370.28C1171.61 1386.75 1251.12 1248.61 1287.19 1202.78C1358.71 1111.92 1407.94 877.15 1232.71 774.808Z" fill="#0285FE"/>
</g>
<g filter="url(#filter25_f_4715_599)">
<path d="M1157.85 775.396C1015.31 663.079 800.46 683.445 730.535 772.275C660.61 861.106 659.494 1015.82 802.028 1128.14C872.661 1183.8 931.737 1285.28 1050.48 1307.17C1171.35 1329.46 1247.29 1193 1282.57 1148.19C1352.49 1059.36 1300.38 887.714 1157.85 775.396Z" fill="#0285FE"/>
</g>
<g filter="url(#filter26_f_4715_599)">
<path d="M1074.46 767.14C927.164 651.07 706.111 670.875 634.592 761.731C563.073 852.587 562.721 1011.45 710.017 1127.52C783.01 1185.04 844.342 1289.55 966.678 1312.65C1091.21 1336.15 1168.68 1196.42 1204.76 1150.59C1276.28 1059.73 1221.76 883.21 1074.46 767.14Z" fill="#0285FE"/>
</g>
<g filter="url(#filter27_f_4715_599)">
<path d="M1196.62 839.991C1067.74 738.43 862.534 770.725 791.015 861.581C719.495 952.437 709.523 1103.72 838.407 1205.29C902.276 1255.61 960.8 1340.89 1072.3 1355.44C1185.8 1370.25 1265.77 1232.49 1301.85 1186.66C1373.37 1095.81 1325.5 941.552 1196.62 839.991Z" fill="#0285FE"/>
</g>
</g>
<g filter="url(#filter28_f_4715_599)">
<path d="M1050.43 1216.65C1083.12 1197.35 1119.72 1119.48 1153.48 1033.44L1224.33 943.428C1285.97 865.127 1148.57 791.245 1012.49 757.528C876.414 723.811 880.683 723.618 823.317 801.725C765.95 879.832 746.992 803.238 660.726 788.615C574.459 773.993 747.192 814.48 769.077 926.58C790.962 1038.68 736.979 1014.7 878.537 1047.99C1020.09 1081.28 995.688 1103.56 976.977 1133.86C958.265 1164.17 927.772 1140.15 910.786 1168.27C893.801 1196.38 916.357 1195.18 969.226 1214.32C1022.09 1233.45 1017.74 1235.94 1050.43 1216.65Z" fill="#FF50ED"/>
</g>
<mask id="mask7_4715_599" style="mask-type:alpha" maskUnits="userSpaceOnUse" x="487" y="505" width="981" height="981">
<path d="M1174.36 505.854L1467.11 1060.3L1112.92 1399.09L965.914 1485.75L603.772 1376.21L487.781 1127.14L859.195 772.243L1174.36 505.854Z" fill="url(#paint16_linear_4715_599)"/>
</mask>
<g mask="url(#mask7_4715_599)">
<mask id="mask8_4715_599" style="mask-type:alpha" maskUnits="userSpaceOnUse" x="462" y="531" width="1074" height="1077">
<path d="M462.596 1167.64C655.542 1372.85 866.224 1596.74 875.142 1607.62L1535.79 971.15L1123.24 531.172L462.596 1167.64Z" fill="url(#paint17_linear_4715_599)"/>
</mask>
<g mask="url(#mask8_4715_599)">
<path d="M1099.72 1305.46C1172.37 1236.04 1164.44 1104.09 1102.58 1038.12C1040.72 972.144 930.135 913.664 852.191 988.141C813.566 1025.05 725.316 1025.76 710.232 1102.46C694.877 1180.54 789.869 1260.37 821.075 1293.65C882.935 1359.63 1027.07 1374.87 1099.72 1305.46Z" fill="#0285FE"/>
<g filter="url(#filter29_f_4715_599)">
<path d="M1093.55 1300.64C1171.46 1226.19 1173.65 1115.78 1125.63 1064.56C1077.6 1013.34 985.178 974.212 907.266 1048.66C868.657 1085.55 788.425 1094.77 766.47 1164.11C744.121 1234.69 820.241 1294.4 844.468 1320.24C892.494 1371.46 1015.64 1375.09 1093.55 1300.64Z" fill="#0285FE"/>
</g>
<g filter="url(#filter30_f_4715_599)">
<path d="M1095.91 1298.39C1183.23 1214.95 1179.58 1084.68 1120.28 1021.44C1060.98 958.192 950.206 906.674 862.882 990.114C819.609 1031.46 720.358 1031.85 698.477 1112.47C676.203 1194.54 774.001 1274.78 803.916 1306.68C863.218 1369.93 1008.59 1381.83 1095.91 1298.39Z" fill="#0285FE"/>
</g>
<g filter="url(#filter31_f_4715_599)">
<path d="M1086.65 1268.06C1178.38 1147.9 1182.66 971.883 1105.94 890.057C1029.21 808.23 891.547 772.058 786.82 872.128C734.922 921.717 584.585 896.283 561.134 995.947C537.261 1097.4 683.61 1240.91 722.314 1282.19C799.039 1364.01 980.383 1407.27 1086.65 1268.06Z" fill="#0285FE"/>
</g>
<g filter="url(#filter32_f_4715_599)">
<path d="M1095.45 1220.34C1208.21 1112.59 1214.49 906.712 1139.47 826.71C1064.46 746.707 924.444 716.52 811.68 824.269C755.8 877.663 659.323 911.963 630.288 1015.24C600.731 1120.37 723.318 1317.75 761.159 1358.1C836.174 1438.11 982.681 1328.09 1095.45 1220.34Z" fill="#0285FE"/>
</g>
<g filter="url(#filter33_f_4715_599)">
<path d="M1117.45 1138.78C1233.98 1027.43 1233.19 823.739 1156.47 741.912C1079.74 660.086 935.908 629.807 819.377 741.156C761.63 796.334 779.205 989.423 748.804 1095.73C717.857 1203.94 838.381 1300.37 877.085 1341.65C953.81 1423.47 1000.91 1250.12 1117.45 1138.78Z" fill="#0285FE"/>
</g>
<g filter="url(#filter34_f_4715_599)">
<path d="M1042 1235.54C1143.96 1138.11 1130.64 946.402 1053.91 864.576C977.187 782.749 840.965 745.198 739 842.628C688.472 890.909 606.711 927.765 584.887 1025.88C562.67 1125.75 681.209 1224.07 719.913 1265.35C796.638 1347.18 940.033 1332.97 1042 1235.54Z" fill="#0285FE"/>
</g>
</g>
</g>
<mask id="mask9_4715_599" style="mask-type:alpha" maskUnits="userSpaceOnUse" x="258" y="191" width="1313" height="1428">
<path d="M1009.25 191.287C764.334 340.163 271.311 639.507 258.512 645.878L819.312 1618.25L1570.05 1163.66L1009.25 191.287Z" fill="url(#paint18_linear_4715_599)"/>
</mask>
<g mask="url(#mask9_4715_599)">
<path d="M526.96 1034.69C608.091 1122.62 731.191 1183.4 809.906 1135.73C888.621 1088.07 966.317 981.124 898.454 863.456C864.824 805.146 918.51 775.133 839.357 729.592C758.782 683.233 660.673 764.277 620.965 788.321C542.25 835.985 445.828 946.755 526.96 1034.69Z" fill="#30DAFF"/>
<g filter="url(#filter35_f_4715_599)">
<path d="M538.912 1044.6C690.183 1176.54 724.8 1185.38 792.461 1144.41C860.122 1103.44 923.321 1005.3 855.486 887.679C821.87 829.393 870.748 804.215 797.117 755.369C722.162 705.645 637.202 778.718 603.07 799.385C535.409 840.356 459.684 982.167 538.912 1044.6Z" fill="#30DAFF"/>
</g>
<g filter="url(#filter36_f_4715_599)">
<path d="M535.002 1032.85C690.024 1206.24 851.228 1219.7 934.646 1169.19C1018.06 1118.68 1006.11 985.632 930.081 853.804C892.404 788.476 983.267 792.315 896.964 739.854C809.11 686.451 680.38 769.749 638.3 795.23C554.882 845.742 458.972 901.021 535.002 1032.85Z" fill="#30DAFF"/>
</g>
<g filter="url(#filter37_f_4715_599)">
<path d="M553.655 1042.08C687.917 1197.13 904.582 1299.64 1002.21 1240.52C1099.84 1181.4 1107.09 997.005 1015.91 838.903C970.723 760.555 1089.95 718.351 987.646 654.707C883.507 589.92 762.778 692.095 713.529 721.917C615.899 781.035 419.392 887.04 553.655 1042.08Z" fill="#30DAFF"/>
</g>
<g filter="url(#filter38_f_4715_599)">
<path d="M673.637 1138C919.232 1331.53 928.154 1330.07 1023.61 1272.27C1119.06 1214.47 1176.08 1046.58 1077.9 876.347C1029.25 791.987 1000.26 781.64 894.925 710.197C787.696 637.471 649.508 759.31 601.356 788.467C505.903 846.267 531.211 1025.77 673.637 1138Z" fill="#30DAFF"/>
</g>
<g filter="url(#filter39_f_4715_599)">
<path d="M701.108 1116.18C802.568 1292.1 1018.57 1365.65 1116.2 1306.53C1213.83 1247.41 1266.36 1091.58 1164.9 915.658C1114.62 828.48 1033.07 678.539 924.713 604.403C814.415 528.936 710.624 787.322 661.374 817.144C563.745 876.262 599.648 940.256 701.108 1116.18Z" fill="#30DAFF"/>
</g>
<g filter="url(#filter40_f_4715_599)">
<path d="M609.274 993.258C698.051 1147.19 903.134 1201.8 1000.76 1142.69C1098.39 1083.57 1157.55 939.228 1068.77 785.297C1024.78 709.016 1081.13 745.969 980.243 684.78C877.545 622.493 756.489 724.1 707.24 753.922C609.61 813.039 520.496 839.326 609.274 993.258Z" fill="#30DAFF"/>
</g>
</g>
<g opacity="0.6" filter="url(#filter41_f_4715_599)">
<path d="M1039.51 815.187C926.48 726.119 713.213 728.547 666.508 787.879C619.804 847.211 429.496 916.108 802.261 1017.81C915.291 1106.87 958.651 1327.56 1075.83 1110.42C1122.53 1051.09 953.273 1023.52 1039.51 815.187Z" fill="#02FFF0"/>
</g>
<path d="M1998 1583.75C1998 1598.81 1995.32 1611.39 1989.96 1621.5C1984.6 1631.6 1976.37 1639.23 1965.25 1644.38C1953.94 1649.53 1939.35 1652.41 1921.49 1653L1914.64 1607.53C1924.96 1607.33 1933.3 1606.44 1939.65 1604.85C1946 1603.07 1950.56 1600.69 1953.34 1597.72C1956.12 1594.55 1957.51 1590.78 1957.51 1586.43C1957.51 1580.88 1955.62 1577.31 1951.85 1575.73C1948.08 1573.94 1944.11 1573.05 1939.94 1573.05C1930.02 1573.05 1921.68 1575.43 1914.94 1580.18C1907.99 1584.94 1901.04 1591.38 1894.1 1599.5L1875.94 1620.31C1868.19 1629.42 1859.46 1637.15 1849.74 1643.49C1839.81 1649.63 1827.61 1652.7 1813.12 1652.7C1792.67 1652.7 1777.09 1646.66 1766.37 1634.57C1755.46 1622.49 1750 1606.04 1750 1585.24C1750 1572.36 1752.18 1562.05 1756.55 1554.33C1760.92 1546.4 1766.67 1540.46 1773.82 1536.49C1780.76 1532.33 1788.21 1529.56 1796.15 1528.17C1803.89 1526.59 1811.33 1525.7 1818.48 1525.5L1824.13 1571.27C1816.99 1571.47 1810.83 1571.96 1805.67 1572.75C1800.31 1573.35 1796.25 1574.73 1793.47 1576.91C1790.49 1579.09 1789 1582.46 1789 1587.02C1789 1591.97 1791.09 1595.64 1795.25 1598.02C1799.42 1600.2 1803.59 1601.29 1807.76 1601.29C1816.69 1601.29 1824.03 1599.21 1829.79 1595.04C1835.35 1590.69 1841.2 1585.04 1847.35 1578.1L1864.92 1558.19C1873.85 1547.69 1883.97 1538.87 1895.29 1531.74C1906.6 1524.41 1920.59 1520.74 1937.27 1520.74C1948.58 1520.74 1958.9 1523.32 1968.23 1528.47C1977.36 1533.62 1984.6 1540.95 1989.96 1550.46C1995.32 1559.78 1998 1570.87 1998 1583.75Z" fill="url(#paint19_linear_4715_599)"/>
<path d="M1994.43 1494.98H1753.27L1753.27 1414.14C1753.27 1399.68 1756.05 1387.79 1761.61 1378.48C1766.97 1369.16 1774.91 1362.23 1785.43 1357.67C1795.75 1353.11 1808.35 1350.84 1823.24 1350.84C1841.9 1350.84 1856.19 1353.91 1866.11 1360.05C1875.84 1366.19 1882.58 1374.51 1886.36 1385.01C1890.13 1395.52 1892.01 1407.31 1892.01 1420.38L1892.01 1441.78H1994.43V1494.98ZM1854.8 1441.78V1423.95C1854.8 1417.41 1853.61 1412.46 1851.22 1409.09C1848.84 1405.72 1845.27 1403.54 1840.51 1402.55C1835.74 1401.36 1829.69 1400.77 1822.35 1400.77C1816.19 1400.77 1810.83 1401.26 1806.27 1402.25C1801.51 1403.05 1797.73 1405.13 1794.96 1408.49C1792.18 1411.86 1790.79 1417.11 1790.79 1424.25V1441.78H1854.8Z" fill="url(#paint20_linear_4715_599)"/>
<path d="M1998 1256.24C1998 1274.27 1994.82 1288.53 1988.47 1299.04C1982.12 1309.54 1972.99 1317.07 1961.08 1321.62C1949.17 1326.18 1934.98 1328.46 1918.51 1328.46H1828.9C1812.22 1328.46 1798.03 1326.18 1786.32 1321.62C1774.61 1317.07 1765.68 1309.54 1759.53 1299.04C1753.18 1288.53 1750 1274.27 1750 1256.24C1750 1238.01 1753.18 1223.64 1759.53 1213.14C1765.68 1202.44 1774.61 1194.81 1786.32 1190.26C1798.03 1185.7 1812.22 1183.42 1828.9 1183.42H1918.51C1934.98 1183.42 1949.17 1185.7 1961.08 1190.26C1972.99 1194.81 1982.12 1202.44 1988.47 1213.14C1994.82 1223.64 1998 1238.01 1998 1256.24ZM1960.19 1256.24C1960.19 1250.69 1958.8 1246.63 1956.02 1244.05C1953.24 1241.48 1949.67 1239.79 1945.3 1239C1940.94 1238.21 1936.47 1237.81 1931.91 1237.81H1815.8C1811.03 1237.81 1806.57 1238.21 1802.4 1239C1798.03 1239.79 1794.46 1241.48 1791.68 1244.05C1788.9 1246.63 1787.51 1250.69 1787.51 1256.24C1787.51 1261.39 1788.9 1265.25 1791.68 1267.83C1794.46 1270.4 1798.03 1272.09 1802.4 1272.88C1806.57 1273.67 1811.03 1274.07 1815.8 1274.07H1931.91C1936.47 1274.07 1940.94 1273.77 1945.3 1273.18C1949.67 1272.39 1953.24 1270.8 1956.02 1268.42C1958.8 1265.85 1960.19 1261.79 1960.19 1256.24Z" fill="url(#paint21_linear_4715_599)"/>
<path d="M1994.43 1151.04L1753.27 1151.04L1753.27 1084.77C1753.27 1068.52 1755.06 1054.45 1758.63 1042.56C1762.21 1030.67 1768.66 1021.46 1777.99 1014.92C1787.12 1008.19 1800.12 1004.82 1816.99 1004.82C1826.91 1004.82 1835.74 1005.61 1843.48 1007.19C1851.22 1008.78 1857.97 1011.75 1863.73 1016.11C1869.29 1020.27 1873.95 1026.31 1877.72 1034.24L1994.43 1001.25V1056.23L1886.36 1082.69V1097.84L1994.43 1097.84V1151.04ZM1855.69 1097.84V1082.98C1855.69 1075.45 1854.4 1069.61 1851.82 1065.45C1849.04 1061.29 1845.17 1058.41 1840.21 1056.83C1835.05 1055.05 1828.9 1054.15 1821.75 1054.15C1811.43 1054.15 1803.39 1056.04 1797.64 1059.8C1791.88 1063.57 1789 1070.5 1789 1080.61V1097.84H1855.69Z" fill="url(#paint22_linear_4715_599)"/>
<path d="M1994.43 953.46L1792.87 953.46L1792.87 989.72L1753.27 989.72L1753.27 864L1792.87 864L1792.87 899.962L1994.43 899.962V953.46Z" fill="url(#paint23_linear_4715_599)"/>
<defs>
<filter id="filter0_f_4715_599" x="1411.94" y="748.458" width="633.067" height="851.691" filterUnits="userSpaceOnUse" color-interpolation-filters="sRGB">
<feFlood flood-opacity="0" result="BackgroundImageFix"/>
<feBlend mode="normal" in="SourceGraphic" in2="BackgroundImageFix" result="shape"/>
<feGaussianBlur stdDeviation="50" result="effect1_foregroundBlur_4715_599"/>
</filter>
<filter id="filter1_f_4715_599" x="1388.82" y="1114.17" width="368.487" height="450.269" filterUnits="userSpaceOnUse" color-interpolation-filters="sRGB">
<feFlood flood-opacity="0" result="BackgroundImageFix"/>
<feBlend mode="normal" in="SourceGraphic" in2="BackgroundImageFix" result="shape"/>
<feGaussianBlur stdDeviation="2" result="effect1_foregroundBlur_4715_599"/>
</filter>
<filter id="filter2_f_4715_599" x="1379.12" y="1077.84" width="480.013" height="524.911" filterUnits="userSpaceOnUse" color-interpolation-filters="sRGB">
<feFlood flood-opacity="0" result="BackgroundImageFix"/>
<feBlend mode="normal" in="SourceGraphic" in2="BackgroundImageFix" result="shape"/>
<feGaussianBlur stdDeviation="7" result="effect1_foregroundBlur_4715_599"/>
</filter>
<filter id="filter3_f_4715_599" x="1380.38" y="986.636" width="598.624" height="666.526" filterUnits="userSpaceOnUse" color-interpolation-filters="sRGB">
<feFlood flood-opacity="0" result="BackgroundImageFix"/>
<feBlend mode="normal" in="SourceGraphic" in2="BackgroundImageFix" result="shape"/>
<feGaussianBlur stdDeviation="10" result="effect1_foregroundBlur_4715_599"/>
</filter>
<filter id="filter4_f_4715_599" x="1400.2" y="878.313" width="592.1" height="768.895" filterUnits="userSpaceOnUse" color-interpolation-filters="sRGB">
<feFlood flood-opacity="0" result="BackgroundImageFix"/>
<feBlend mode="normal" in="SourceGraphic" in2="BackgroundImageFix" result="shape"/>
<feGaussianBlur stdDeviation="27" result="effect1_foregroundBlur_4715_599"/>
</filter>
<filter id="filter5_f_4715_599" x="1368.91" y="721.807" width="763.104" height="950.911" filterUnits="userSpaceOnUse" color-interpolation-filters="sRGB">
<feFlood flood-opacity="0" result="BackgroundImageFix"/>
<feBlend mode="normal" in="SourceGraphic" in2="BackgroundImageFix" result="shape"/>
<feGaussianBlur stdDeviation="67" result="effect1_foregroundBlur_4715_599"/>
</filter>
<filter id="filter6_f_4715_599" x="1412.28" y="973.694" width="617.155" height="721.294" filterUnits="userSpaceOnUse" color-interpolation-filters="sRGB">
<feFlood flood-opacity="0" result="BackgroundImageFix"/>
<feBlend mode="normal" in="SourceGraphic" in2="BackgroundImageFix" result="shape"/>
<feGaussianBlur stdDeviation="31" result="effect1_foregroundBlur_4715_599"/>
</filter>
<filter id="filter7_f_4715_599" x="1404.81" y="806.208" width="573.579" height="725.421" filterUnits="userSpaceOnUse" color-interpolation-filters="sRGB">
<feFlood flood-opacity="0" result="BackgroundImageFix"/>
<feBlend mode="normal" in="SourceGraphic" in2="BackgroundImageFix" result="shape"/>
<feGaussianBlur stdDeviation="34" result="effect1_foregroundBlur_4715_599"/>
</filter>
<filter id="filter8_f_4715_599" x="1675.32" y="1206.94" width="371.926" height="345.944" filterUnits="userSpaceOnUse" color-interpolation-filters="sRGB">
<feFlood flood-opacity="0" result="BackgroundImageFix"/>
<feBlend mode="normal" in="SourceGraphic" in2="BackgroundImageFix" result="shape"/>
<feGaussianBlur stdDeviation="2" result="effect1_foregroundBlur_4715_599"/>
</filter>
<filter id="filter9_f_4715_599" x="1638.43" y="1111.65" width="435.915" height="451.442" filterUnits="userSpaceOnUse" color-interpolation-filters="sRGB">
<feFlood flood-opacity="0" result="BackgroundImageFix"/>
<feBlend mode="normal" in="SourceGraphic" in2="BackgroundImageFix" result="shape"/>
<feGaussianBlur stdDeviation="7" result="effect1_foregroundBlur_4715_599"/>
</filter>
<filter id="filter10_f_4715_599" x="1549.66" y="927.919" width="567.055" height="614.902" filterUnits="userSpaceOnUse" color-interpolation-filters="sRGB">
<feFlood flood-opacity="0" result="BackgroundImageFix"/>
<feBlend mode="normal" in="SourceGraphic" in2="BackgroundImageFix" result="shape"/>
<feGaussianBlur stdDeviation="10" result="effect1_foregroundBlur_4715_599"/>
</filter>
<filter id="filter11_f_4715_599" x="1449.34" y="947.016" width="729.007" height="603.672" filterUnits="userSpaceOnUse" color-interpolation-filters="sRGB">
<feFlood flood-opacity="0" result="BackgroundImageFix"/>
<feBlend mode="normal" in="SourceGraphic" in2="BackgroundImageFix" result="shape"/>
<feGaussianBlur stdDeviation="27" result="effect1_foregroundBlur_4715_599"/>
</filter>
<filter id="filter12_f_4715_599" x="1298.73" y="842.103" width="872.24" height="769.361" filterUnits="userSpaceOnUse" color-interpolation-filters="sRGB">
<feFlood flood-opacity="0" result="BackgroundImageFix"/>
<feBlend mode="normal" in="SourceGraphic" in2="BackgroundImageFix" result="shape"/>
<feGaussianBlur stdDeviation="67" result="effect1_foregroundBlur_4715_599"/>
</filter>
<filter id="filter13_f_4715_599" x="1523.82" y="908.107" width="624.603" height="621.936" filterUnits="userSpaceOnUse" color-interpolation-filters="sRGB">
<feFlood flood-opacity="0" result="BackgroundImageFix"/>
<feBlend mode="normal" in="SourceGraphic" in2="BackgroundImageFix" result="shape"/>
<feGaussianBlur stdDeviation="31" result="effect1_foregroundBlur_4715_599"/>
</filter>
<filter id="filter14_f_4715_599" x="1671.47" y="848.851" width="382.598" height="388.844" filterUnits="userSpaceOnUse" color-interpolation-filters="sRGB">
<feFlood flood-opacity="0" result="BackgroundImageFix"/>
<feBlend mode="normal" in="SourceGraphic" in2="BackgroundImageFix" result="shape"/>
<feGaussianBlur stdDeviation="2" result="effect1_foregroundBlur_4715_599"/>
</filter>
<filter id="filter15_f_4715_599" x="1583.59" y="844.053" width="477.189" height="519.977" filterUnits="userSpaceOnUse" color-interpolation-filters="sRGB">
<feFlood flood-opacity="0" result="BackgroundImageFix"/>
<feBlend mode="normal" in="SourceGraphic" in2="BackgroundImageFix" result="shape"/>
<feGaussianBlur stdDeviation="7" result="effect1_foregroundBlur_4715_599"/>
</filter>
<filter id="filter16_f_4715_599" x="1459.58" y="828.562" width="602.455" height="638.645" filterUnits="userSpaceOnUse" color-interpolation-filters="sRGB">
<feFlood flood-opacity="0" result="BackgroundImageFix"/>
<feBlend mode="normal" in="SourceGraphic" in2="BackgroundImageFix" result="shape"/>
<feGaussianBlur stdDeviation="10" result="effect1_foregroundBlur_4715_599"/>
</filter>
<filter id="filter17_f_4715_599" x="1508.86" y="791.79" width="573.537" height="747.947" filterUnits="userSpaceOnUse" color-interpolation-filters="sRGB">
<feFlood flood-opacity="0" result="BackgroundImageFix"/>
<feBlend mode="normal" in="SourceGraphic" in2="BackgroundImageFix" result="shape"/>
<feGaussianBlur stdDeviation="27" result="effect1_foregroundBlur_4715_599"/>
</filter>
<filter id="filter18_f_4715_599" x="1350.45" y="758.279" width="795.083" height="951.926" filterUnits="userSpaceOnUse" color-interpolation-filters="sRGB">
<feFlood flood-opacity="0" result="BackgroundImageFix"/>
<feBlend mode="normal" in="SourceGraphic" in2="BackgroundImageFix" result="shape"/>
<feGaussianBlur stdDeviation="67" result="effect1_foregroundBlur_4715_599"/>
</filter>
<filter id="filter19_f_4715_599" x="1433.84" y="810.853" width="609.427" height="635.38" filterUnits="userSpaceOnUse" color-interpolation-filters="sRGB">
<feFlood flood-opacity="0" result="BackgroundImageFix"/>
<feBlend mode="normal" in="SourceGraphic" in2="BackgroundImageFix" result="shape"/>
<feGaussianBlur stdDeviation="31" result="effect1_foregroundBlur_4715_599"/>
</filter>
<filter id="filter20_f_4715_599" x="1477.15" y="805.583" width="539.614" height="698.974" filterUnits="userSpaceOnUse" color-interpolation-filters="sRGB">
<feFlood flood-opacity="0" result="BackgroundImageFix"/>
<feBlend mode="normal" in="SourceGraphic" in2="BackgroundImageFix" result="shape"/>
<feGaussianBlur stdDeviation="42" result="effect1_foregroundBlur_4715_599"/>
</filter>
<filter id="filter21_f_4715_599" x="500.563" y="547.688" width="825.395" height="776.489" filterUnits="userSpaceOnUse" color-interpolation-filters="sRGB">
<feFlood flood-opacity="0" result="BackgroundImageFix"/>
<feBlend mode="normal" in="SourceGraphic" in2="BackgroundImageFix" result="shape"/>
<feGaussianBlur stdDeviation="58.7975" result="effect1_foregroundBlur_4715_599"/>
</filter>
<filter id="filter22_f_4715_599" x="932.116" y="720.47" width="421.784" height="459.479" filterUnits="userSpaceOnUse" color-interpolation-filters="sRGB">
<feFlood flood-opacity="0" result="BackgroundImageFix"/>
<feBlend mode="normal" in="SourceGraphic" in2="BackgroundImageFix" result="shape"/>
<feGaussianBlur stdDeviation="2.3519" result="effect1_foregroundBlur_4715_599"/>
</filter>
<filter id="filter23_f_4715_599" x="858.214" y="704.088" width="509.257" height="572.369" filterUnits="userSpaceOnUse" color-interpolation-filters="sRGB">
<feFlood flood-opacity="0" result="BackgroundImageFix"/>
<feBlend mode="normal" in="SourceGraphic" in2="BackgroundImageFix" result="shape"/>
<feGaussianBlur stdDeviation="8.23164" result="effect1_foregroundBlur_4715_599"/>
</filter>
<filter id="filter24_f_4715_599" x="743.23" y="690.86" width="632.782" height="704.297" filterUnits="userSpaceOnUse" color-interpolation-filters="sRGB">
<feFlood flood-opacity="0" result="BackgroundImageFix"/>
<feBlend mode="normal" in="SourceGraphic" in2="BackgroundImageFix" result="shape"/>
<feGaussianBlur stdDeviation="11.7595" result="effect1_foregroundBlur_4715_599"/>
</filter>
<filter id="filter25_f_4715_599" x="620.878" y="634.766" width="756.027" height="738.349" filterUnits="userSpaceOnUse" color-interpolation-filters="sRGB">
<feFlood flood-opacity="0" result="BackgroundImageFix"/>
<feBlend mode="normal" in="SourceGraphic" in2="BackgroundImageFix" result="shape"/>
<feGaussianBlur stdDeviation="31.7506" result="effect1_foregroundBlur_4715_599"/>
</filter>
<filter id="filter26_f_4715_599" x="430.206" y="529.167" width="963.373" height="943.701" filterUnits="userSpaceOnUse" color-interpolation-filters="sRGB">
<feFlood flood-opacity="0" result="BackgroundImageFix"/>
<feBlend mode="normal" in="SourceGraphic" in2="BackgroundImageFix" result="shape"/>
<feGaussianBlur stdDeviation="78.7886" result="effect1_foregroundBlur_4715_599"/>
</filter>
<filter id="filter27_f_4715_599" x="665.988" y="704.331" width="742.02" height="725.125" filterUnits="userSpaceOnUse" color-interpolation-filters="sRGB">
<feFlood flood-opacity="0" result="BackgroundImageFix"/>
<feBlend mode="normal" in="SourceGraphic" in2="BackgroundImageFix" result="shape"/>
<feGaussianBlur stdDeviation="36.4544" result="effect1_foregroundBlur_4715_599"/>
</filter>
<filter id="filter28_f_4715_599" x="556.798" y="656.059" width="762.659" height="653.854" filterUnits="userSpaceOnUse" color-interpolation-filters="sRGB">
<feFlood flood-opacity="0" result="BackgroundImageFix"/>
<feBlend mode="normal" in="SourceGraphic" in2="BackgroundImageFix" result="shape"/>
<feGaussianBlur stdDeviation="39.9823" result="effect1_foregroundBlur_4715_599"/>
</filter>
<filter id="filter29_f_4715_599" x="757.707" y="1002.64" width="404.694" height="359.822" filterUnits="userSpaceOnUse" color-interpolation-filters="sRGB">
<feFlood flood-opacity="0" result="BackgroundImageFix"/>
<feBlend mode="normal" in="SourceGraphic" in2="BackgroundImageFix" result="shape"/>
<feGaussianBlur stdDeviation="2.3519" result="effect1_foregroundBlur_4715_599"/>
</filter>
<filter id="filter30_f_4715_599" x="678.746" y="930.216" width="501.072" height="443.798" filterUnits="userSpaceOnUse" color-interpolation-filters="sRGB">
<feFlood flood-opacity="0" result="BackgroundImageFix"/>
<feBlend mode="normal" in="SourceGraphic" in2="BackgroundImageFix" result="shape"/>
<feGaussianBlur stdDeviation="8.23164" result="effect1_foregroundBlur_4715_599"/>
</filter>
<filter id="filter31_f_4715_599" x="534.999" y="787.889" width="648.296" height="593.998" filterUnits="userSpaceOnUse" color-interpolation-filters="sRGB">
<feFlood flood-opacity="0" result="BackgroundImageFix"/>
<feBlend mode="normal" in="SourceGraphic" in2="BackgroundImageFix" result="shape"/>
<feGaussianBlur stdDeviation="11.7595" result="effect1_foregroundBlur_4715_599"/>
</filter>
<filter id="filter32_f_4715_599" x="562.234" y="691.056" width="690.415" height="757.974" filterUnits="userSpaceOnUse" color-interpolation-filters="sRGB">
<feFlood flood-opacity="0" result="BackgroundImageFix"/>
<feBlend mode="normal" in="SourceGraphic" in2="BackgroundImageFix" result="shape"/>
<feGaussianBlur stdDeviation="31.7506" result="effect1_foregroundBlur_4715_599"/>
</filter>
<filter id="filter33_f_4715_599" x="586.201" y="511.054" width="781.517" height="1009.4" filterUnits="userSpaceOnUse" color-interpolation-filters="sRGB">
<feFlood flood-opacity="0" result="BackgroundImageFix"/>
<feBlend mode="normal" in="SourceGraphic" in2="BackgroundImageFix" result="shape"/>
<feGaussianBlur stdDeviation="78.7886" result="effect1_foregroundBlur_4715_599"/>
</filter>
<filter id="filter34_f_4715_599" x="509.228" y="711.669" width="678.646" height="679.915" filterUnits="userSpaceOnUse" color-interpolation-filters="sRGB">
<feFlood flood-opacity="0" result="BackgroundImageFix"/>
<feBlend mode="normal" in="SourceGraphic" in2="BackgroundImageFix" result="shape"/>
<feGaussianBlur stdDeviation="36.4544" result="effect1_foregroundBlur_4715_599"/>
</filter>
<filter id="filter35_f_4715_599" x="500.332" y="733.654" width="388.951" height="437.117" filterUnits="userSpaceOnUse" color-interpolation-filters="sRGB">
<feFlood flood-opacity="0" result="BackgroundImageFix"/>
<feBlend mode="normal" in="SourceGraphic" in2="BackgroundImageFix" result="shape"/>
<feGaussianBlur stdDeviation="2.3519" result="effect1_foregroundBlur_4715_599"/>
</filter>
<filter id="filter36_f_4715_599" x="490.858" y="705.865" width="517.922" height="505.484" filterUnits="userSpaceOnUse" color-interpolation-filters="sRGB">
<feFlood flood-opacity="0" result="BackgroundImageFix"/>
<feBlend mode="normal" in="SourceGraphic" in2="BackgroundImageFix" result="shape"/>
<feGaussianBlur stdDeviation="8.23164" result="effect1_foregroundBlur_4715_599"/>
</filter>
<filter id="filter37_f_4715_599" x="484.684" y="610.067" width="618.917" height="670.926" filterUnits="userSpaceOnUse" color-interpolation-filters="sRGB">
<feFlood flood-opacity="0" result="BackgroundImageFix"/>
<feBlend mode="normal" in="SourceGraphic" in2="BackgroundImageFix" result="shape"/>
<feGaussianBlur stdDeviation="11.7595" result="effect1_foregroundBlur_4715_599"/>
</filter>
<filter id="filter38_f_4715_599" x="481.042" y="623.883" width="711.515" height="745.944" filterUnits="userSpaceOnUse" color-interpolation-filters="sRGB">
<feFlood flood-opacity="0" result="BackgroundImageFix"/>
<feBlend mode="normal" in="SourceGraphic" in2="BackgroundImageFix" result="shape"/>
<feGaussianBlur stdDeviation="31.7506" result="effect1_foregroundBlur_4715_599"/>
</filter>
<filter id="filter39_f_4715_599" x="446.367" y="433.075" width="931.037" height="1051.14" filterUnits="userSpaceOnUse" color-interpolation-filters="sRGB">
<feFlood flood-opacity="0" result="BackgroundImageFix"/>
<feBlend mode="normal" in="SourceGraphic" in2="BackgroundImageFix" result="shape"/>
<feGaussianBlur stdDeviation="78.7886" result="effect1_foregroundBlur_4715_599"/>
</filter>
<filter id="filter40_f_4715_599" x="499.879" y="592.033" width="685.358" height="646.868" filterUnits="userSpaceOnUse" color-interpolation-filters="sRGB">
<feFlood flood-opacity="0" result="BackgroundImageFix"/>
<feBlend mode="normal" in="SourceGraphic" in2="BackgroundImageFix" result="shape"/>
<feGaussianBlur stdDeviation="36.4544" result="effect1_foregroundBlur_4715_599"/>
</filter>
<filter id="filter41_f_4715_599" x="477.662" y="646.71" width="705.258" height="655.169" filterUnits="userSpaceOnUse" color-interpolation-filters="sRGB">
<feFlood flood-opacity="0" result="BackgroundImageFix"/>
<feBlend mode="normal" in="SourceGraphic" in2="BackgroundImageFix" result="shape"/>
<feGaussianBlur stdDeviation="49.3899" result="effect1_foregroundBlur_4715_599"/>
</filter>
<linearGradient id="paint0_linear_4715_599" x1="215.586" y1="0" x2="215.586" y2="652.901" gradientUnits="userSpaceOnUse">
<stop stop-color="#0239FE"/>
<stop offset="1" stop-color="#0285FE"/>
</linearGradient>
<linearGradient id="paint1_linear_4715_599" x1="1620.39" y1="1336.16" x2="1804.9" y2="1603.55" gradientUnits="userSpaceOnUse">
<stop stop-color="#C4C4C4"/>
<stop offset="1" stop-color="#C4C4C4" stop-opacity="0"/>
</linearGradient>
<linearGradient id="paint2_linear_4715_599" x1="1399.94" y1="1318.02" x2="1858.29" y2="1340.59" gradientUnits="userSpaceOnUse">
<stop stop-color="#C4C4C4"/>
<stop offset="1" stop-color="#C4C4C4" stop-opacity="0"/>
</linearGradient>
<linearGradient id="paint3_linear_4715_599" x1="1580.93" y1="1556.57" x2="1616.1" y2="1120.52" gradientUnits="userSpaceOnUse">
<stop stop-color="#0239FE"/>
<stop offset="1" stop-color="#0285FE"/>
</linearGradient>
<linearGradient id="paint4_linear_4715_599" x1="1559.35" y1="1556.13" x2="1594.51" y2="1120.25" gradientUnits="userSpaceOnUse">
<stop stop-color="#0239FE"/>
<stop offset="1" stop-color="#0285FE"/>
</linearGradient>
<linearGradient id="paint5_linear_4715_599" x1="1604" y1="1583.28" x2="1643.41" y2="1094.75" gradientUnits="userSpaceOnUse">
<stop stop-color="#0239FE"/>
<stop offset="1" stop-color="#0285FE"/>
</linearGradient>
<linearGradient id="paint6_linear_4715_599" x1="1663.48" y1="1624.89" x2="1713.15" y2="1009.1" gradientUnits="userSpaceOnUse">
<stop stop-color="#0239FE"/>
<stop offset="1" stop-color="#0285FE"/>
</linearGradient>
<linearGradient id="paint7_linear_4715_599" x1="1674.6" y1="1588.98" x2="1727.58" y2="932.237" gradientUnits="userSpaceOnUse">
<stop stop-color="#0239FE"/>
<stop offset="1" stop-color="#0285FE"/>
</linearGradient>
<linearGradient id="paint8_linear_4715_599" x1="1728.09" y1="1534.41" x2="1782.84" y2="855.723" gradientUnits="userSpaceOnUse">
<stop stop-color="#0239FE"/>
<stop offset="1" stop-color="#0285FE"/>
</linearGradient>
<linearGradient id="paint9_linear_4715_599" x1="1698.86" y1="1629.21" x2="1746.76" y2="1035.37" gradientUnits="userSpaceOnUse">
<stop stop-color="#0239FE"/>
<stop offset="1" stop-color="#0285FE"/>
</linearGradient>
<linearGradient id="paint10_linear_4715_599" x1="1700.97" y1="1423.52" x2="2014.6" y2="1376.96" gradientUnits="userSpaceOnUse">
<stop stop-color="#C4C4C4"/>
<stop offset="0.943414" stop-color="#C4C4C4" stop-opacity="0"/>
</linearGradient>
<linearGradient id="paint11_linear_4715_599" x1="1860.23" y1="1452.39" x2="1874.72" y2="1086.56" gradientUnits="userSpaceOnUse">
<stop stop-color="#C4C4C4"/>
<stop offset="1" stop-color="#C4C4C4" stop-opacity="0"/>
</linearGradient>
<linearGradient id="paint12_linear_4715_599" x1="2036.57" y1="962.325" x2="1572.56" y2="1397.5" gradientUnits="userSpaceOnUse">
<stop stop-color="#C4C4C4"/>
<stop offset="1" stop-color="#C4C4C4" stop-opacity="0"/>
</linearGradient>
<linearGradient id="paint13_linear_4715_599" x1="1744.48" y1="1408.56" x2="1785.77" y2="896.738" gradientUnits="userSpaceOnUse">
<stop offset="0.213542" stop-color="#0073FB"/>
<stop offset="0.567708" stop-color="#65FFED"/>
<stop offset="0.9375" stop-color="#DE58FF"/>
</linearGradient>
<linearGradient id="paint14_linear_4715_599" x1="1109.81" y1="965.22" x2="1186.52" y2="1289.7" gradientUnits="userSpaceOnUse">
<stop stop-color="#C4C4C4"/>
<stop offset="1" stop-color="#C4C4C4" stop-opacity="0"/>
</linearGradient>
<linearGradient id="paint15_linear_4715_599" x1="1252.18" y1="783.771" x2="943.866" y2="1149.65" gradientUnits="userSpaceOnUse">
<stop stop-color="#C4C4C4"/>
<stop offset="1" stop-color="#C4C4C4" stop-opacity="0"/>
</linearGradient>
<linearGradient id="paint16_linear_4715_599" x1="1117.7" y1="1087.45" x2="858.765" y2="1292.12" gradientUnits="userSpaceOnUse">
<stop stop-color="#C4C4C4"/>
<stop offset="0.943414" stop-color="#C4C4C4" stop-opacity="0"/>
</linearGradient>
<linearGradient id="paint17_linear_4715_599" x1="1026.53" y1="1229.46" x2="743.92" y2="988.163" gradientUnits="userSpaceOnUse">
<stop stop-color="#C4C4C4"/>
<stop offset="1" stop-color="#C4C4C4" stop-opacity="0"/>
</linearGradient>
<linearGradient id="paint18_linear_4715_599" x1="538.142" y1="1025.09" x2="1190.16" y2="988.442" gradientUnits="userSpaceOnUse">
<stop stop-color="#C4C4C4"/>
<stop offset="1" stop-color="#C4C4C4" stop-opacity="0"/>
</linearGradient>
<linearGradient id="paint19_linear_4715_599" x1="1670.97" y1="1262.6" x2="2048.5" y2="1262.6" gradientUnits="userSpaceOnUse">
<stop stop-color="white" stop-opacity="0"/>
<stop offset="1" stop-color="white"/>
</linearGradient>
<linearGradient id="paint20_linear_4715_599" x1="1670.97" y1="1262.6" x2="2048.5" y2="1262.6" gradientUnits="userSpaceOnUse">
<stop stop-color="white" stop-opacity="0"/>
<stop offset="1" stop-color="white"/>
</linearGradient>
<linearGradient id="paint21_linear_4715_599" x1="1670.97" y1="1262.6" x2="2048.5" y2="1262.6" gradientUnits="userSpaceOnUse">
<stop stop-color="white" stop-opacity="0"/>
<stop offset="1" stop-color="white"/>
</linearGradient>
<linearGradient id="paint22_linear_4715_599" x1="1670.97" y1="1262.6" x2="2048.5" y2="1262.6" gradientUnits="userSpaceOnUse">
<stop stop-color="white" stop-opacity="0"/>
<stop offset="1" stop-color="white"/>
</linearGradient>
<linearGradient id="paint23_linear_4715_599" x1="1670.97" y1="1262.6" x2="2048.5" y2="1262.6" gradientUnits="userSpaceOnUse">
<stop stop-color="white" stop-opacity="0"/>
<stop offset="1" stop-color="white"/>
</linearGradient>
</defs>
</svg>
