<svg width="1828" height="1810" viewBox="0 0 1828 1810" fill="none" xmlns="http://www.w3.org/2000/svg">
<g filter="url(#filter0_f_4711_360)">
<ellipse cx="224.79" cy="331.314" rx="224.79" ry="331.314" transform="matrix(0.618528 -0.785762 -0.785445 -0.618931 1034.45 1317.63)" fill="#0285FE"/>
</g>
<mask id="mask0_4711_360" style="mask-type:alpha" maskUnits="userSpaceOnUse" x="374" y="395" width="1120" height="1057">
<path d="M374.158 764.283L910.13 395.072L1365.66 752.966L1493.03 904.4L1448.53 1302.35L1204.25 1451.37L734.776 1081.43L374.158 764.283Z" fill="url(#paint0_linear_4711_360)"/>
</mask>
<g mask="url(#mask0_4711_360)">
</g>
<mask id="mask1_4711_360" style="mask-type:alpha" maskUnits="userSpaceOnUse" x="426" y="326" width="1233" height="1173">
<path d="M1241.11 1498.51C1420.35 1270.08 1648.95 978.648 1658.75 967.96L844.594 326.407L426.96 856.959L1241.11 1498.51Z" fill="url(#paint1_linear_4711_360)"/>
</mask>
<g mask="url(#mask1_4711_360)">
<path d="M1259.51 770.862C1167.68 698.503 1026.16 719.375 968.493 792.629C910.83 865.882 872.329 991.306 970.85 1068.94C1019.67 1107.41 1040.4 1203.09 1127.12 1212.32C1215.4 1221.72 1280.62 1111.23 1309.71 1074.27C1367.37 1001.02 1351.33 843.22 1259.51 770.862Z" fill="#0285FE"/>
<g filter="url(#filter1_f_4711_360)">
<path d="M1255.67 778.003C1157.19 700.4 1031.42 715.096 981.855 778.062C932.29 841.029 904.4 952.94 1002.88 1030.54C1051.68 1069 1076.52 1159.42 1159.18 1173.75C1243.33 1188.35 1297.51 1091.89 1322.51 1060.13C1372.08 997.16 1354.15 855.606 1255.67 778.003Z" fill="#0285FE"/>
</g>
<g filter="url(#filter2_f_4711_360)">
<path d="M1252.68 775.652C1142.31 688.674 995.149 713.017 934.041 790.647C872.933 868.277 834.384 1002.97 944.762 1089.95C999.46 1133.05 1017.74 1246.53 1113.16 1259.08C1210.29 1271.85 1283.76 1147.56 1314.58 1108.4C1375.69 1030.77 1363.06 862.63 1252.68 775.652Z" fill="#0285FE"/>
</g>
<g filter="url(#filter3_f_4711_360)">
<path d="M1232.71 774.808C1081.44 686.464 889.302 698.199 817.783 789.055C746.264 879.911 738.116 1032.64 870.492 1136.95C936.091 1188.64 942.472 1354.11 1056.02 1370.28C1171.62 1386.75 1251.12 1248.61 1287.2 1202.78C1358.72 1111.93 1407.94 877.15 1232.71 774.808Z" fill="#0285FE"/>
</g>
<g filter="url(#filter4_f_4711_360)">
<path d="M1157.85 775.398C1015.31 663.08 800.462 683.446 730.537 772.277C660.612 861.107 659.496 1015.82 802.03 1128.14C872.663 1183.8 931.739 1285.28 1050.48 1307.17C1171.35 1329.46 1247.29 1193 1282.57 1148.19C1352.49 1059.36 1300.38 887.715 1157.85 775.398Z" fill="#0285FE"/>
</g>
<g filter="url(#filter5_f_4711_360)">
<path d="M1074.46 767.141C927.166 651.071 706.113 670.876 634.594 761.732C563.075 852.588 562.723 1011.46 710.019 1127.53C783.012 1185.04 844.344 1289.56 966.68 1312.65C1091.21 1336.15 1168.68 1196.42 1204.76 1150.59C1276.28 1059.73 1221.76 883.211 1074.46 767.141Z" fill="#0285FE"/>
</g>
<g filter="url(#filter6_f_4711_360)">
<path d="M1196.62 839.992C1067.74 738.431 862.536 770.726 791.017 861.582C719.497 952.438 709.525 1103.73 838.409 1205.29C902.278 1255.61 960.802 1340.89 1072.3 1355.44C1185.8 1370.25 1265.78 1232.5 1301.85 1186.66C1373.37 1095.81 1325.51 941.553 1196.62 839.992Z" fill="#0285FE"/>
</g>
</g>
<g filter="url(#filter7_f_4711_360)">
<path d="M1050.43 1216.65C1083.12 1197.35 1119.72 1119.48 1153.48 1033.44L1224.33 943.429C1285.97 865.129 1148.57 791.246 1012.49 757.53C876.417 723.813 880.686 723.62 823.319 801.727C765.953 879.834 746.995 803.239 660.728 788.617C574.461 773.995 747.194 814.481 769.08 926.582C790.965 1038.68 736.981 1014.7 878.539 1047.99C1020.1 1081.29 995.691 1103.56 976.979 1133.87C958.268 1164.17 927.774 1140.15 910.789 1168.27C893.804 1196.38 916.36 1195.19 969.229 1214.32C1022.1 1233.45 1017.74 1235.95 1050.43 1216.65Z" fill="#FF50ED"/>
</g>
<mask id="mask2_4711_360" style="mask-type:alpha" maskUnits="userSpaceOnUse" x="487" y="505" width="981" height="981">
<path d="M1174.36 505.854L1467.11 1060.3L1112.92 1399.09L965.916 1485.75L603.774 1376.21L487.783 1127.14L859.197 772.242L1174.36 505.854Z" fill="url(#paint2_linear_4711_360)"/>
</mask>
<g mask="url(#mask2_4711_360)">
<mask id="mask3_4711_360" style="mask-type:alpha" maskUnits="userSpaceOnUse" x="462" y="531" width="1074" height="1077">
<path d="M462.598 1167.64C655.544 1372.85 866.226 1596.74 875.144 1607.62L1535.79 971.15L1123.24 531.172L462.598 1167.64Z" fill="url(#paint3_linear_4711_360)"/>
</mask>
<g mask="url(#mask3_4711_360)">
<path d="M1099.72 1305.46C1172.37 1236.04 1164.45 1104.09 1102.59 1038.12C1040.72 972.143 930.137 913.664 852.193 988.141C813.568 1025.05 725.318 1025.76 710.234 1102.46C694.879 1180.54 789.871 1260.37 821.077 1293.65C882.937 1359.63 1027.07 1374.87 1099.72 1305.46Z" fill="#0285FE"/>
<g filter="url(#filter8_f_4711_360)">
<path d="M1093.55 1300.64C1171.46 1226.19 1173.65 1115.78 1125.63 1064.56C1077.6 1013.34 985.18 974.212 907.268 1048.66C868.659 1085.55 788.427 1094.77 766.472 1164.11C744.123 1234.69 820.243 1294.4 844.47 1320.24C892.496 1371.46 1015.64 1375.09 1093.55 1300.64Z" fill="#0285FE"/>
</g>
<g filter="url(#filter9_f_4711_360)">
<path d="M1095.91 1298.39C1183.24 1214.95 1179.58 1084.68 1120.28 1021.44C1060.98 958.192 950.208 906.674 862.884 990.114C819.611 1031.46 720.36 1031.85 698.479 1112.47C676.205 1194.54 774.003 1274.78 803.918 1306.68C863.22 1369.93 1008.59 1381.83 1095.91 1298.39Z" fill="#0285FE"/>
</g>
<g filter="url(#filter10_f_4711_360)">
<path d="M1086.65 1268.06C1178.39 1147.9 1182.66 971.883 1105.94 890.056C1029.21 808.229 891.549 772.058 786.822 872.127C734.924 921.717 584.587 896.282 561.135 995.947C537.263 1097.4 683.612 1240.91 722.316 1282.19C799.041 1364.01 980.385 1407.27 1086.65 1268.06Z" fill="#0285FE"/>
</g>
<g filter="url(#filter11_f_4711_360)">
<path d="M1095.45 1220.34C1208.21 1112.59 1214.49 906.712 1139.48 826.709C1064.46 746.707 924.446 716.519 811.682 824.268C755.802 877.663 659.324 911.962 630.29 1015.24C600.733 1120.37 723.32 1317.75 761.161 1358.1C836.176 1438.11 982.683 1328.09 1095.45 1220.34Z" fill="#0285FE"/>
</g>
<g filter="url(#filter12_f_4711_360)">
<path d="M1117.45 1138.78C1233.98 1027.43 1233.19 823.739 1156.47 741.912C1079.74 660.085 935.91 629.807 819.379 741.155C761.632 796.334 779.207 989.422 748.806 1095.73C717.859 1203.94 838.383 1300.37 877.087 1341.65C953.812 1423.47 1000.92 1250.12 1117.45 1138.78Z" fill="#0285FE"/>
</g>
<g filter="url(#filter13_f_4711_360)">
<path d="M1042 1235.54C1143.96 1138.11 1130.64 946.402 1053.91 864.576C977.189 782.749 840.967 745.198 739.002 842.628C688.474 890.909 606.713 927.765 584.888 1025.88C562.672 1125.75 681.211 1224.07 719.915 1265.35C796.64 1347.18 940.035 1332.97 1042 1235.54Z" fill="#0285FE"/>
</g>
</g>
</g>
<mask id="mask4_4711_360" style="mask-type:alpha" maskUnits="userSpaceOnUse" x="258" y="191" width="1313" height="1428">
<path d="M1009.25 191.262C764.336 340.138 271.314 639.483 258.515 645.854L819.315 1618.23L1570.05 1163.63L1009.25 191.262Z" fill="url(#paint4_linear_4711_360)"/>
</mask>
<g mask="url(#mask4_4711_360)">
<path d="M526.962 1034.66C608.094 1122.59 731.193 1183.37 809.909 1135.71C888.624 1088.05 966.319 981.099 898.456 863.432C864.827 805.122 918.513 775.109 839.36 729.568C758.785 683.208 660.675 764.252 620.967 788.297C542.252 835.961 445.831 946.731 526.962 1034.66Z" fill="#30DAFF"/>
<g filter="url(#filter14_f_4711_360)">
<path d="M538.914 1044.57C690.185 1176.51 724.802 1185.36 792.463 1144.39C860.124 1103.42 923.323 1005.27 855.488 887.655C821.872 829.368 870.75 804.19 797.119 755.344C722.164 705.62 637.204 778.693 603.072 799.361C535.411 840.332 459.686 982.142 538.914 1044.57Z" fill="#30DAFF"/>
</g>
<g filter="url(#filter15_f_4711_360)">
<path d="M535.004 1032.82C690.026 1206.21 851.231 1219.68 934.649 1169.17C1018.07 1118.66 1006.11 985.608 930.083 853.779C892.407 788.452 983.269 792.291 896.966 739.83C809.113 686.427 680.382 769.725 638.302 795.205C554.884 845.717 458.974 900.996 535.004 1032.82Z" fill="#30DAFF"/>
</g>
<g filter="url(#filter16_f_4711_360)">
<path d="M553.657 1042.06C687.92 1197.1 904.585 1299.61 1002.21 1240.49C1099.84 1181.38 1107.09 996.98 1015.91 838.878C970.725 760.531 1089.95 718.326 987.649 654.683C883.509 589.895 762.781 692.071 713.531 721.893C615.902 781.01 419.395 887.016 553.657 1042.06Z" fill="#30DAFF"/>
</g>
<g filter="url(#filter17_f_4711_360)">
<path d="M673.639 1137.97C919.234 1331.5 928.156 1330.05 1023.61 1272.25C1119.06 1214.45 1176.08 1046.56 1077.9 876.322C1029.25 791.963 1000.27 781.616 894.928 710.173C787.698 637.446 649.51 759.285 601.359 788.442C505.906 846.242 531.214 1025.74 673.639 1137.97Z" fill="#30DAFF"/>
</g>
<g filter="url(#filter18_f_4711_360)">
<path d="M701.11 1116.15C802.57 1292.08 1018.57 1365.62 1116.2 1306.5C1213.83 1247.39 1266.36 1091.56 1164.9 915.634C1114.62 828.456 1033.07 678.514 924.716 604.379C814.417 528.912 710.626 787.297 661.377 817.119C563.747 876.237 599.65 940.232 701.11 1116.15Z" fill="#30DAFF"/>
</g>
<g filter="url(#filter19_f_4711_360)">
<path d="M609.276 993.233C698.054 1147.17 903.136 1201.78 1000.77 1142.66C1098.4 1083.54 1157.55 939.204 1068.77 785.272C1024.78 708.992 1081.13 745.944 980.246 684.756C877.548 622.468 756.492 724.075 707.242 753.897C609.613 813.015 520.499 839.302 609.276 993.233Z" fill="#30DAFF"/>
</g>
</g>
<g opacity="0.6" filter="url(#filter20_f_4711_360)">
<path d="M1039.51 815.188C926.483 726.12 713.215 728.548 666.511 787.88C619.806 847.212 429.499 916.109 802.263 1017.81C915.294 1106.87 958.654 1327.56 1075.83 1110.42C1122.54 1051.09 953.276 1023.52 1039.51 815.188Z" fill="#02FFF0"/>
</g>
<path d="M1278 1286.4C1278 1293.27 1276.79 1299.01 1274.37 1303.63C1271.95 1308.24 1268.23 1311.72 1263.21 1314.07C1258.1 1316.42 1251.51 1317.73 1243.45 1318L1240.35 1297.25C1245.01 1297.16 1248.78 1296.75 1251.65 1296.03C1254.52 1295.22 1256.58 1294.13 1257.83 1292.78C1259.09 1291.33 1259.71 1289.61 1259.71 1287.62C1259.71 1285.09 1258.86 1283.46 1257.16 1282.74C1255.46 1281.93 1253.66 1281.52 1251.78 1281.52C1247.3 1281.52 1243.54 1282.61 1240.49 1284.78C1237.35 1286.95 1234.21 1289.88 1231.08 1293.59L1222.87 1303.08C1219.38 1307.24 1215.43 1310.77 1211.04 1313.66C1206.56 1316.46 1201.05 1317.86 1194.5 1317.86C1185.27 1317.86 1178.24 1315.11 1173.39 1309.59C1168.46 1304.08 1166 1296.57 1166 1287.08C1166 1281.2 1166.99 1276.5 1168.96 1272.98C1170.93 1269.36 1173.53 1266.65 1176.76 1264.84C1179.89 1262.94 1183.25 1261.68 1186.84 1261.04C1190.34 1260.32 1193.7 1259.91 1196.92 1259.82L1199.48 1280.71C1196.25 1280.8 1193.47 1281.02 1191.14 1281.39C1188.72 1281.66 1186.89 1282.29 1185.63 1283.28C1184.29 1284.28 1183.61 1285.82 1183.61 1287.89C1183.61 1290.15 1184.55 1291.83 1186.44 1292.91C1188.32 1293.91 1190.2 1294.4 1192.08 1294.4C1196.12 1294.4 1199.43 1293.45 1202.03 1291.56C1204.54 1289.57 1207.19 1286.99 1209.97 1283.83L1217.9 1274.74C1221.93 1269.95 1226.5 1265.93 1231.61 1262.67C1236.72 1259.33 1243.04 1257.65 1250.57 1257.65C1255.68 1257.65 1260.34 1258.83 1264.55 1261.18C1268.68 1263.53 1271.95 1266.88 1274.37 1271.21C1276.79 1275.46 1278 1280.53 1278 1286.4Z" fill="url(#paint5_linear_4711_360)"/>
<path d="M1276.39 1245.9H1167.48L1167.48 1209.02C1167.48 1202.42 1168.73 1196.99 1171.24 1192.74C1173.66 1188.49 1177.25 1185.33 1182 1183.25C1186.66 1181.17 1192.35 1180.13 1199.08 1180.13C1207.5 1180.13 1213.96 1181.53 1218.44 1184.33C1222.83 1187.14 1225.88 1190.93 1227.58 1195.73C1229.28 1200.52 1230.13 1205.9 1230.13 1211.86L1230.13 1221.63H1276.39V1245.9ZM1213.33 1221.63V1213.49C1213.33 1210.51 1212.79 1208.25 1211.71 1206.71C1210.64 1205.17 1209.03 1204.18 1206.87 1203.73C1204.72 1203.18 1201.99 1202.91 1198.67 1202.91C1195.89 1202.91 1193.47 1203.14 1191.41 1203.59C1189.26 1203.95 1187.56 1204.9 1186.3 1206.44C1185.05 1207.98 1184.42 1210.37 1184.42 1213.63V1221.63H1213.33Z" fill="url(#paint6_linear_4711_360)"/>
<path d="M1278 1136.97C1278 1145.19 1276.57 1151.7 1273.7 1156.5C1270.83 1161.29 1266.71 1164.72 1261.33 1166.8C1255.95 1168.88 1249.54 1169.92 1242.1 1169.92H1201.63C1194.1 1169.92 1187.69 1168.88 1182.4 1166.8C1177.11 1164.72 1173.08 1161.29 1170.3 1156.5C1167.43 1151.7 1166 1145.19 1166 1136.97C1166 1128.65 1167.43 1122.1 1170.3 1117.3C1173.08 1112.42 1177.11 1108.94 1182.4 1106.86C1187.69 1104.78 1194.1 1103.74 1201.63 1103.74H1242.1C1249.54 1103.74 1255.95 1104.78 1261.33 1106.86C1266.71 1108.94 1270.83 1112.42 1273.7 1117.3C1276.57 1122.1 1278 1128.65 1278 1136.97ZM1260.92 1136.97C1260.92 1134.44 1260.3 1132.58 1259.04 1131.41C1257.79 1130.23 1256.17 1129.46 1254.2 1129.1C1252.23 1128.74 1250.21 1128.56 1248.15 1128.56H1195.71C1193.56 1128.56 1191.55 1128.74 1189.66 1129.1C1187.69 1129.46 1186.08 1130.23 1184.82 1131.41C1183.57 1132.58 1182.94 1134.44 1182.94 1136.97C1182.94 1139.32 1183.57 1141.08 1184.82 1142.26C1186.08 1143.43 1187.69 1144.2 1189.66 1144.56C1191.55 1144.92 1193.56 1145.1 1195.71 1145.1H1248.15C1250.21 1145.1 1252.23 1144.97 1254.2 1144.7C1256.17 1144.34 1257.79 1143.61 1259.04 1142.53C1260.3 1141.35 1260.92 1139.5 1260.92 1136.97Z" fill="url(#paint7_linear_4711_360)"/>
<path d="M1276.39 1088.97L1167.48 1088.97L1167.48 1058.73C1167.48 1051.32 1168.29 1044.9 1169.9 1039.47C1171.51 1034.05 1174.43 1029.85 1178.64 1026.86C1182.76 1023.79 1188.63 1022.25 1196.25 1022.25C1200.73 1022.25 1204.72 1022.61 1208.22 1023.34C1211.71 1024.06 1214.76 1025.42 1217.36 1027.4C1219.87 1029.3 1221.98 1032.06 1223.68 1035.68L1276.39 1020.62V1045.71L1227.58 1057.78V1064.7L1276.39 1064.7V1088.97ZM1213.73 1064.7V1057.92C1213.73 1054.48 1213.15 1051.81 1211.98 1049.92C1210.73 1048.02 1208.98 1046.71 1206.74 1045.98C1204.41 1045.17 1201.63 1044.76 1198.4 1044.76C1193.74 1044.76 1190.11 1045.62 1187.51 1047.34C1184.91 1049.06 1183.61 1052.22 1183.61 1056.83V1064.7H1213.73Z" fill="url(#paint8_linear_4711_360)"/>
<path d="M1276.39 998.818L1185.36 998.818L1185.36 1015.36L1167.48 1015.36L1167.48 958L1185.36 958L1185.36 974.409L1276.39 974.409V998.818Z" fill="url(#paint9_linear_4711_360)"/>
<defs>
<filter id="filter0_f_4711_360" x="500.566" y="547.689" width="825.394" height="776.489" filterUnits="userSpaceOnUse" color-interpolation-filters="sRGB">
<feFlood flood-opacity="0" result="BackgroundImageFix"/>
<feBlend mode="normal" in="SourceGraphic" in2="BackgroundImageFix" result="shape"/>
<feGaussianBlur stdDeviation="58.7975" result="effect1_foregroundBlur_4711_360"/>
</filter>
<filter id="filter1_f_4711_360" x="932.117" y="720.471" width="421.784" height="459.48" filterUnits="userSpaceOnUse" color-interpolation-filters="sRGB">
<feFlood flood-opacity="0" result="BackgroundImageFix"/>
<feBlend mode="normal" in="SourceGraphic" in2="BackgroundImageFix" result="shape"/>
<feGaussianBlur stdDeviation="2.3519" result="effect1_foregroundBlur_4711_360"/>
</filter>
<filter id="filter2_f_4711_360" x="858.216" y="704.089" width="509.257" height="572.368" filterUnits="userSpaceOnUse" color-interpolation-filters="sRGB">
<feFlood flood-opacity="0" result="BackgroundImageFix"/>
<feBlend mode="normal" in="SourceGraphic" in2="BackgroundImageFix" result="shape"/>
<feGaussianBlur stdDeviation="8.23164" result="effect1_foregroundBlur_4711_360"/>
</filter>
<filter id="filter3_f_4711_360" x="743.232" y="690.861" width="632.782" height="704.297" filterUnits="userSpaceOnUse" color-interpolation-filters="sRGB">
<feFlood flood-opacity="0" result="BackgroundImageFix"/>
<feBlend mode="normal" in="SourceGraphic" in2="BackgroundImageFix" result="shape"/>
<feGaussianBlur stdDeviation="11.7595" result="effect1_foregroundBlur_4711_360"/>
</filter>
<filter id="filter4_f_4711_360" x="620.88" y="634.768" width="756.027" height="738.349" filterUnits="userSpaceOnUse" color-interpolation-filters="sRGB">
<feFlood flood-opacity="0" result="BackgroundImageFix"/>
<feBlend mode="normal" in="SourceGraphic" in2="BackgroundImageFix" result="shape"/>
<feGaussianBlur stdDeviation="31.7506" result="effect1_foregroundBlur_4711_360"/>
</filter>
<filter id="filter5_f_4711_360" x="430.208" y="529.168" width="963.373" height="943.701" filterUnits="userSpaceOnUse" color-interpolation-filters="sRGB">
<feFlood flood-opacity="0" result="BackgroundImageFix"/>
<feBlend mode="normal" in="SourceGraphic" in2="BackgroundImageFix" result="shape"/>
<feGaussianBlur stdDeviation="78.7886" result="effect1_foregroundBlur_4711_360"/>
</filter>
<filter id="filter6_f_4711_360" x="665.99" y="704.332" width="742.02" height="725.126" filterUnits="userSpaceOnUse" color-interpolation-filters="sRGB">
<feFlood flood-opacity="0" result="BackgroundImageFix"/>
<feBlend mode="normal" in="SourceGraphic" in2="BackgroundImageFix" result="shape"/>
<feGaussianBlur stdDeviation="36.4544" result="effect1_foregroundBlur_4711_360"/>
</filter>
<filter id="filter7_f_4711_360" x="556.801" y="656.061" width="762.659" height="653.855" filterUnits="userSpaceOnUse" color-interpolation-filters="sRGB">
<feFlood flood-opacity="0" result="BackgroundImageFix"/>
<feBlend mode="normal" in="SourceGraphic" in2="BackgroundImageFix" result="shape"/>
<feGaussianBlur stdDeviation="39.9823" result="effect1_foregroundBlur_4711_360"/>
</filter>
<filter id="filter8_f_4711_360" x="757.709" y="1002.64" width="404.694" height="359.821" filterUnits="userSpaceOnUse" color-interpolation-filters="sRGB">
<feFlood flood-opacity="0" result="BackgroundImageFix"/>
<feBlend mode="normal" in="SourceGraphic" in2="BackgroundImageFix" result="shape"/>
<feGaussianBlur stdDeviation="2.3519" result="effect1_foregroundBlur_4711_360"/>
</filter>
<filter id="filter9_f_4711_360" x="678.748" y="930.216" width="501.073" height="443.797" filterUnits="userSpaceOnUse" color-interpolation-filters="sRGB">
<feFlood flood-opacity="0" result="BackgroundImageFix"/>
<feBlend mode="normal" in="SourceGraphic" in2="BackgroundImageFix" result="shape"/>
<feGaussianBlur stdDeviation="8.23164" result="effect1_foregroundBlur_4711_360"/>
</filter>
<filter id="filter10_f_4711_360" x="535.001" y="787.888" width="648.295" height="593.999" filterUnits="userSpaceOnUse" color-interpolation-filters="sRGB">
<feFlood flood-opacity="0" result="BackgroundImageFix"/>
<feBlend mode="normal" in="SourceGraphic" in2="BackgroundImageFix" result="shape"/>
<feGaussianBlur stdDeviation="11.7595" result="effect1_foregroundBlur_4711_360"/>
</filter>
<filter id="filter11_f_4711_360" x="562.236" y="691.056" width="690.415" height="757.974" filterUnits="userSpaceOnUse" color-interpolation-filters="sRGB">
<feFlood flood-opacity="0" result="BackgroundImageFix"/>
<feBlend mode="normal" in="SourceGraphic" in2="BackgroundImageFix" result="shape"/>
<feGaussianBlur stdDeviation="31.7506" result="effect1_foregroundBlur_4711_360"/>
</filter>
<filter id="filter12_f_4711_360" x="586.203" y="511.054" width="781.518" height="1009.4" filterUnits="userSpaceOnUse" color-interpolation-filters="sRGB">
<feFlood flood-opacity="0" result="BackgroundImageFix"/>
<feBlend mode="normal" in="SourceGraphic" in2="BackgroundImageFix" result="shape"/>
<feGaussianBlur stdDeviation="78.7886" result="effect1_foregroundBlur_4711_360"/>
</filter>
<filter id="filter13_f_4711_360" x="509.23" y="711.669" width="678.646" height="679.916" filterUnits="userSpaceOnUse" color-interpolation-filters="sRGB">
<feFlood flood-opacity="0" result="BackgroundImageFix"/>
<feBlend mode="normal" in="SourceGraphic" in2="BackgroundImageFix" result="shape"/>
<feGaussianBlur stdDeviation="36.4544" result="effect1_foregroundBlur_4711_360"/>
</filter>
<filter id="filter14_f_4711_360" x="500.335" y="733.629" width="388.95" height="437.116" filterUnits="userSpaceOnUse" color-interpolation-filters="sRGB">
<feFlood flood-opacity="0" result="BackgroundImageFix"/>
<feBlend mode="normal" in="SourceGraphic" in2="BackgroundImageFix" result="shape"/>
<feGaussianBlur stdDeviation="2.3519" result="effect1_foregroundBlur_4711_360"/>
</filter>
<filter id="filter15_f_4711_360" x="490.86" y="705.841" width="517.922" height="505.484" filterUnits="userSpaceOnUse" color-interpolation-filters="sRGB">
<feFlood flood-opacity="0" result="BackgroundImageFix"/>
<feBlend mode="normal" in="SourceGraphic" in2="BackgroundImageFix" result="shape"/>
<feGaussianBlur stdDeviation="8.23164" result="effect1_foregroundBlur_4711_360"/>
</filter>
<filter id="filter16_f_4711_360" x="484.687" y="610.043" width="618.917" height="670.926" filterUnits="userSpaceOnUse" color-interpolation-filters="sRGB">
<feFlood flood-opacity="0" result="BackgroundImageFix"/>
<feBlend mode="normal" in="SourceGraphic" in2="BackgroundImageFix" result="shape"/>
<feGaussianBlur stdDeviation="11.7595" result="effect1_foregroundBlur_4711_360"/>
</filter>
<filter id="filter17_f_4711_360" x="481.044" y="623.859" width="711.515" height="745.944" filterUnits="userSpaceOnUse" color-interpolation-filters="sRGB">
<feFlood flood-opacity="0" result="BackgroundImageFix"/>
<feBlend mode="normal" in="SourceGraphic" in2="BackgroundImageFix" result="shape"/>
<feGaussianBlur stdDeviation="31.7506" result="effect1_foregroundBlur_4711_360"/>
</filter>
<filter id="filter18_f_4711_360" x="446.37" y="433.051" width="931.038" height="1051.14" filterUnits="userSpaceOnUse" color-interpolation-filters="sRGB">
<feFlood flood-opacity="0" result="BackgroundImageFix"/>
<feBlend mode="normal" in="SourceGraphic" in2="BackgroundImageFix" result="shape"/>
<feGaussianBlur stdDeviation="78.7886" result="effect1_foregroundBlur_4711_360"/>
</filter>
<filter id="filter19_f_4711_360" x="499.882" y="592.009" width="685.357" height="646.868" filterUnits="userSpaceOnUse" color-interpolation-filters="sRGB">
<feFlood flood-opacity="0" result="BackgroundImageFix"/>
<feBlend mode="normal" in="SourceGraphic" in2="BackgroundImageFix" result="shape"/>
<feGaussianBlur stdDeviation="36.4544" result="effect1_foregroundBlur_4711_360"/>
</filter>
<filter id="filter20_f_4711_360" x="477.664" y="646.711" width="705.259" height="655.169" filterUnits="userSpaceOnUse" color-interpolation-filters="sRGB">
<feFlood flood-opacity="0" result="BackgroundImageFix"/>
<feBlend mode="normal" in="SourceGraphic" in2="BackgroundImageFix" result="shape"/>
<feGaussianBlur stdDeviation="49.3899" result="effect1_foregroundBlur_4711_360"/>
</filter>
<linearGradient id="paint0_linear_4711_360" x1="1109.81" y1="965.222" x2="1186.53" y2="1289.7" gradientUnits="userSpaceOnUse">
<stop stop-color="#C4C4C4"/>
<stop offset="1" stop-color="#C4C4C4" stop-opacity="0"/>
</linearGradient>
<linearGradient id="paint1_linear_4711_360" x1="1252.19" y1="783.773" x2="943.868" y2="1149.66" gradientUnits="userSpaceOnUse">
<stop stop-color="#C4C4C4"/>
<stop offset="1" stop-color="#C4C4C4" stop-opacity="0"/>
</linearGradient>
<linearGradient id="paint2_linear_4711_360" x1="1117.7" y1="1087.45" x2="858.767" y2="1292.12" gradientUnits="userSpaceOnUse">
<stop stop-color="#C4C4C4"/>
<stop offset="0.943414" stop-color="#C4C4C4" stop-opacity="0"/>
</linearGradient>
<linearGradient id="paint3_linear_4711_360" x1="1026.53" y1="1229.46" x2="743.922" y2="988.163" gradientUnits="userSpaceOnUse">
<stop stop-color="#C4C4C4"/>
<stop offset="1" stop-color="#C4C4C4" stop-opacity="0"/>
</linearGradient>
<linearGradient id="paint4_linear_4711_360" x1="538.144" y1="1025.06" x2="1190.16" y2="988.418" gradientUnits="userSpaceOnUse">
<stop stop-color="#C4C4C4"/>
<stop offset="1" stop-color="#C4C4C4" stop-opacity="0"/>
</linearGradient>
<linearGradient id="paint5_linear_4711_360" x1="1130.31" y1="1139.87" x2="1300.81" y2="1139.87" gradientUnits="userSpaceOnUse">
<stop stop-color="white" stop-opacity="0"/>
<stop offset="1" stop-color="white"/>
</linearGradient>
<linearGradient id="paint6_linear_4711_360" x1="1130.31" y1="1139.87" x2="1300.81" y2="1139.87" gradientUnits="userSpaceOnUse">
<stop stop-color="white" stop-opacity="0"/>
<stop offset="1" stop-color="white"/>
</linearGradient>
<linearGradient id="paint7_linear_4711_360" x1="1130.31" y1="1139.87" x2="1300.81" y2="1139.87" gradientUnits="userSpaceOnUse">
<stop stop-color="white" stop-opacity="0"/>
<stop offset="1" stop-color="white"/>
</linearGradient>
<linearGradient id="paint8_linear_4711_360" x1="1130.31" y1="1139.87" x2="1300.81" y2="1139.87" gradientUnits="userSpaceOnUse">
<stop stop-color="white" stop-opacity="0"/>
<stop offset="1" stop-color="white"/>
</linearGradient>
<linearGradient id="paint9_linear_4711_360" x1="1130.31" y1="1139.87" x2="1300.81" y2="1139.87" gradientUnits="userSpaceOnUse">
<stop stop-color="white" stop-opacity="0"/>
<stop offset="1" stop-color="white"/>
</linearGradient>
</defs>
</svg>
