<svg width="32" height="32" viewBox="0 0 32 32" fill="none" xmlns="http://www.w3.org/2000/svg">
<path d="M17.482 24.1514C16.5337 25.1011 16.0007 26.3881 16 27.7302V29.3389" stroke="#FDFDFD" stroke-width="1.5" stroke-linecap="round" stroke-linejoin="round"/>
<path d="M14.5176 24.1514C15.4659 25.1011 15.9988 26.3881 15.9995 27.7302V29.3389" stroke="#FDFDFD" stroke-width="1.5" stroke-linecap="round" stroke-linejoin="round"/>
<path d="M23.0029 16.1476C18.5036 17.9257 13.4964 17.9257 8.99707 16.1476" stroke="#FDFDFD" stroke-width="1.5" stroke-linecap="round" stroke-linejoin="round"/>
<path d="M25.3369 11.331H29.3386" stroke="#FDFDFD" stroke-width="1.5" stroke-linecap="round" stroke-linejoin="round"/>
<path d="M27.3377 13.3317L25.3369 11.3309L27.3377 9.33008" stroke="#FDFDFD" stroke-width="1.5" stroke-linecap="round" stroke-linejoin="round"/>
<path d="M6.6628 11.331H2.66113" stroke="#FDFDFD" stroke-width="1.5" stroke-linecap="round" stroke-linejoin="round"/>
<path d="M4.66211 9.33008L6.66294 11.3309L4.66211 13.3317" stroke="#FDFDFD" stroke-width="1.5" stroke-linecap="round" stroke-linejoin="round"/>
<path d="M23.4107 2.66113L22.6104 4.87272C21.2313 8.66507 21.4724 12.8577 23.2773 16.4669V16.4669C25.2403 20.3941 25.3445 24.9933 23.5614 29.0054L23.4147 29.3376" stroke="#FDFDFD" stroke-width="1.5" stroke-linecap="round" stroke-linejoin="round"/>
<path d="M8.5891 2.66113L9.38944 4.87272C10.7686 8.66507 10.5274 12.8577 8.72249 16.4669V16.4669C6.7595 20.3941 6.65528 24.9933 8.43837 29.0054L8.5851 29.3376" stroke="#FDFDFD" stroke-width="1.5" stroke-linecap="round" stroke-linejoin="round"/>
<path d="M10.0117 7.1064H21.9874" stroke="#FDFDFD" stroke-width="1.5" stroke-linecap="round" stroke-linejoin="round"/>
</svg>
