<svg width="32" height="32" viewBox="0 0 32 32" fill="none" xmlns="http://www.w3.org/2000/svg">
<path d="M20.7881 19.1782L21.1429 18.6447C22.6381 16.4032 25.4483 15.4394 28.0044 16.2917" stroke="#FDFDFD" stroke-width="1.5" stroke-linecap="round" stroke-linejoin="round"/>
<path d="M13.4184 17.058L15.0191 9.07604L16.7665 9.94974C17.4153 10.2737 18.2038 10.0659 18.6086 9.4642L20.1346 7.17392C20.5155 6.60149 20.4402 5.83988 19.9545 5.35316L18.0337 3.43236C17.1431 2.54155 15.7202 2.47677 14.7523 3.28296C10.2076 7.06988 6.80874 12.049 4.93758 17.661L4.13725 20.0433C3.73803 21.2468 4.17095 22.5699 5.20436 23.3046L7.24655 24.7639C11.1876 27.5796 16.2912 28.1944 20.7882 26.3953L22.2315 29.2818" stroke="#FDFDFD" stroke-width="1.5" stroke-linecap="round" stroke-linejoin="round"/>
<path d="M20.7885 17.7335C18.1665 15.986 14.751 15.986 12.1289 17.7335" stroke="#FDFDFD" stroke-width="1.5" stroke-linecap="round" stroke-linejoin="round"/>
</svg>
