<svg width="32" height="32" viewBox="0 0 32 32" fill="none" xmlns="http://www.w3.org/2000/svg">
<circle cx="15.9997" cy="19.3327" r="8.66667" stroke="#FDFDFD" stroke-width="1.5" stroke-linecap="round" stroke-linejoin="round"/>
<path d="M14.8662 17.6673L16.1995 16.334V21.6673" stroke="#FDFDFD" stroke-width="1.5" stroke-linecap="round" stroke-linejoin="round"/>
<path d="M14.8662 21.6667H17.5329" stroke="#FDFDFD" stroke-width="1.5" stroke-linecap="round" stroke-linejoin="round"/>
<path d="M15.9996 8.60751L13.1725 4.56868C12.923 4.21226 12.5153 4 12.0802 4H7.33531C6.83815 3.99999 6.38228 4.27659 6.15267 4.71755C5.92306 5.15852 5.95786 5.6906 6.24295 6.09791L10.7097 12.4791" stroke="#FDFDFD" stroke-width="1.5" stroke-linecap="round" stroke-linejoin="round"/>
<path d="M14.457 10.8117L18.8272 4.56868C19.0767 4.21226 19.4844 4 19.9194 4H24.6643C25.1615 3.99999 25.6173 4.27659 25.847 4.71755C26.0766 5.15852 26.0418 5.6906 25.7567 6.09791L21.2899 12.4791" stroke="#FDFDFD" stroke-width="1.5" stroke-linecap="round" stroke-linejoin="round"/>
</svg>
