<svg width="48" height="48" viewBox="0 0 48 48" fill="none" xmlns="http://www.w3.org/2000/svg">
<path d="M22.3194 34.6021C22.8499 35.1326 23.71 35.1326 24.2406 34.6021C24.7711 34.0716 24.7711 33.2114 24.2406 32.6809L17.0502 25.4906L40.9403 25.4906C41.6906 25.4906 42.2988 24.8823 42.2988 24.1321C42.2988 23.3818 41.6906 22.7736 40.9403 22.7736L17.0502 22.7736L24.2406 15.5832C24.7711 15.0527 24.7711 14.1926 24.2406 13.662C23.71 13.1315 22.8499 13.1315 22.3194 13.662L12.8099 23.1715C12.5612 23.4202 12.4291 23.7413 12.4136 24.0669C12.4126 24.0886 12.412 24.1103 12.412 24.1321" fill="#FDFDFD"/>
<path d="M12.5151 24.6521C12.5814 24.8123 12.6797 24.9624 12.8099 25.0927L22.3194 34.6021" fill="#FDFDFD"/>
<path d="M12.5151 24.6521C12.4502 24.4955 12.4137 24.3242 12.4121 24.1446L12.5151 24.6521Z" fill="#FDFDFD"/>
<path d="M22.3194 34.6021L12.412 24.1321L12.4121 24.1446L12.5151 24.6521L22.3194 34.6021Z" fill="#FDFDFD"/>
</svg>
