<svg width="16" height="16" viewBox="0 0 16 16" fill="none" xmlns="http://www.w3.org/2000/svg">
<path d="M7.99917 4.91797C7.1816 4.91797 6.39751 5.24275 5.8194 5.82086C5.24128 6.39897 4.9165 7.18306 4.9165 8.00064C4.9165 8.81821 5.24128 9.6023 5.8194 10.1804C6.39751 10.7585 7.1816 11.0833 7.99917 11.0833C8.81674 11.0833 9.60083 10.7585 10.1789 10.1804C10.7571 9.6023 11.0818 8.81821 11.0818 8.00064C11.0818 7.18306 10.7571 6.39897 10.1789 5.82086C9.60083 5.24275 8.81674 4.91797 7.99917 4.91797ZM7.99917 10.0026C7.46803 10.0026 6.95864 9.79164 6.58307 9.41607C6.2075 9.04049 5.9965 8.53111 5.9965 7.99997C5.9965 7.46883 6.2075 6.95944 6.58307 6.58387C6.95864 6.2083 7.46803 5.9973 7.99917 5.9973C8.53031 5.9973 9.0397 6.2083 9.41527 6.58387C9.79084 6.95944 10.0018 7.46883 10.0018 7.99997C10.0018 8.53111 9.79084 9.04049 9.41527 9.41607C9.0397 9.79164 8.53031 10.0026 7.99917 10.0026Z" fill="#FDFDFD"/>
<path d="M11.204 5.52327C11.6009 5.52327 11.9227 5.20151 11.9227 4.8046C11.9227 4.4077 11.6009 4.08594 11.204 4.08594C10.8071 4.08594 10.4854 4.4077 10.4854 4.8046C10.4854 5.20151 10.8071 5.52327 11.204 5.52327Z" fill="#FDFDFD"/>
<path d="M13.6888 4.0736C13.5345 3.67505 13.2986 3.31312 12.9964 3.01097C12.6941 2.70882 12.3321 2.47311 11.9335 2.31893C11.467 2.14383 10.9743 2.04916 10.4761 2.03893C9.83413 2.01093 9.6308 2.00293 8.0028 2.00293C6.3748 2.00293 6.16613 2.00293 5.52946 2.03893C5.03172 2.04863 4.5393 2.14333 4.07346 2.31893C3.67476 2.47293 3.31264 2.70858 3.01035 3.01075C2.70807 3.31292 2.47228 3.67495 2.31813 4.0736C2.143 4.54 2.04854 5.03282 2.0388 5.53093C2.01013 6.17226 2.00146 6.3756 2.00146 8.00426C2.00146 9.63226 2.00146 9.8396 2.0388 10.4776C2.0488 10.9763 2.1428 11.4683 2.31813 11.9356C2.47272 12.3341 2.70873 12.696 3.01109 12.9981C3.31345 13.3002 3.67551 13.536 4.07413 13.6903C4.53909 13.8724 5.03171 13.9739 5.5308 13.9903C6.1728 14.0183 6.37613 14.0269 8.00413 14.0269C9.63213 14.0269 9.8408 14.0269 10.4775 13.9903C10.9755 13.9801 11.4683 13.8857 11.9348 13.7109C12.3333 13.5564 12.6952 13.3205 12.9974 13.0182C13.2997 12.716 13.5356 12.3541 13.6901 11.9556C13.8655 11.4889 13.9595 10.9969 13.9695 10.4983C13.9981 9.85693 14.0068 9.6536 14.0068 8.02493C14.0068 6.39626 14.0068 6.1896 13.9695 5.5516C13.9617 5.04644 13.8668 4.54643 13.6888 4.0736ZM12.8768 10.4283C12.8725 10.8125 12.8024 11.1931 12.6695 11.5536C12.5693 11.8128 12.4161 12.0483 12.2195 12.2447C12.0229 12.4412 11.7874 12.5943 11.5281 12.6943C11.1716 12.8266 10.795 12.8967 10.4148 12.9016C9.78147 12.9309 9.6028 12.9383 7.9788 12.9383C6.35347 12.9383 6.18746 12.9383 5.54213 12.9016C5.16208 12.8969 4.78568 12.8268 4.42946 12.6943C4.16926 12.5949 3.9328 12.4421 3.73539 12.2456C3.53798 12.0491 3.38402 11.8133 3.28346 11.5536C3.15243 11.197 3.08234 10.8208 3.07613 10.4409C3.04746 9.8076 3.0408 9.62893 3.0408 8.00493C3.0408 6.38026 3.0408 6.21426 3.07613 5.56826C3.08044 5.18428 3.15057 4.80388 3.28346 4.4436C3.4868 3.9176 3.90346 3.5036 4.42946 3.30226C4.78586 3.17036 5.16215 3.10024 5.54213 3.09493C6.17613 3.06626 6.35413 3.05826 7.9788 3.05826C9.60347 3.05826 9.77013 3.05826 10.4148 3.09493C10.7951 3.0995 11.1717 3.16964 11.5281 3.30226C11.7874 3.40244 12.0229 3.55573 12.2194 3.75228C12.416 3.94884 12.5693 4.18431 12.6695 4.4436C12.8005 4.80023 12.8706 5.17637 12.8768 5.55626C12.9055 6.19026 12.9128 6.36826 12.9128 7.99293C12.9128 9.61693 12.9128 9.7916 12.8841 10.4289H12.8768V10.4283Z" fill="#FDFDFD"/>
</svg>
