<svg width="104" height="31" viewBox="0 0 104 31" fill="none" xmlns="http://www.w3.org/2000/svg">
<path d="M4.85156 6.9375V24H1.62891V6.9375H4.85156ZM11.7305 14.3086V16.8516H4.00781V14.3086H11.7305ZM12.6328 6.9375V9.48047H4.00781V6.9375H12.6328ZM17.8711 11.3203V24H14.7656V11.3203H17.8711ZM14.5547 8.00391C14.5547 7.54297 14.7109 7.16016 15.0234 6.85547C15.3438 6.55078 15.7734 6.39844 16.3125 6.39844C16.8516 6.39844 17.2773 6.55078 17.5898 6.85547C17.9102 7.16016 18.0703 7.54297 18.0703 8.00391C18.0703 8.45703 17.9102 8.83594 17.5898 9.14062C17.2773 9.44531 16.8516 9.59766 16.3125 9.59766C15.7734 9.59766 15.3438 9.44531 15.0234 9.14062C14.7109 8.83594 14.5547 8.45703 14.5547 8.00391ZM26.8242 11.3203V13.5469H19.5586V11.3203H26.8242ZM21.5039 8.20312H24.6094V20.3438C24.6094 20.7188 24.6602 21.0078 24.7617 21.2109C24.8633 21.4141 25.0156 21.5508 25.2188 21.6211C25.4219 21.6914 25.6641 21.7266 25.9453 21.7266C26.1484 21.7266 26.3359 21.7148 26.5078 21.6914C26.6797 21.668 26.8242 21.6445 26.9414 21.6211L26.9531 23.9414C26.6953 24.0273 26.4023 24.0977 26.0742 24.1523C25.7539 24.207 25.3906 24.2344 24.9844 24.2344C24.2891 24.2344 23.6797 24.1172 23.1562 23.8828C22.6328 23.6406 22.2266 23.2539 21.9375 22.7227C21.6484 22.1836 21.5039 21.4727 21.5039 20.5898V8.20312ZM42.4336 15.1758V21.8203C42.1836 22.1406 41.7891 22.4883 41.25 22.8633C40.7188 23.2383 40.0234 23.5625 39.1641 23.8359C38.3047 24.1016 37.25 24.2344 36 24.2344C34.9141 24.2344 33.9219 24.0547 33.0234 23.6953C32.125 23.3281 31.3516 22.793 30.7031 22.0898C30.0547 21.3867 29.5547 20.5273 29.2031 19.5117C28.8516 18.4961 28.6758 17.3359 28.6758 16.0312V14.9062C28.6758 13.6016 28.8398 12.4414 29.168 11.4258C29.5039 10.4102 29.9805 9.55078 30.5977 8.84766C31.2227 8.14453 31.9688 7.60937 32.8359 7.24219C33.7109 6.875 34.6875 6.69141 35.7656 6.69141C37.2109 6.69141 38.3984 6.92969 39.3281 7.40625C40.2656 7.88281 40.9844 8.53906 41.4844 9.375C41.9844 10.2031 42.2969 11.1562 42.4219 12.2344H39.2812C39.1953 11.6406 39.0234 11.1211 38.7656 10.6758C38.5078 10.2227 38.1406 9.87109 37.6641 9.62109C37.1953 9.36328 36.5859 9.23438 35.8359 9.23438C35.2031 9.23438 34.6445 9.35938 34.1602 9.60938C33.6758 9.85938 33.2695 10.2227 32.9414 10.6992C32.6133 11.1758 32.3633 11.7656 32.1914 12.4688C32.0273 13.1719 31.9453 13.9766 31.9453 14.8828V16.0312C31.9453 16.9453 32.0391 17.7578 32.2266 18.4688C32.4141 19.1719 32.6836 19.7656 33.0352 20.25C33.3945 20.7266 33.8359 21.0898 34.3594 21.3398C34.8906 21.582 35.4922 21.7031 36.1641 21.7031C36.7734 21.7031 37.2773 21.6523 37.6758 21.5508C38.082 21.4414 38.4062 21.3125 38.6484 21.1641C38.8906 21.0156 39.0781 20.8711 39.2109 20.7305V17.5312H35.8242V15.1758H42.4336ZM47.4727 6.9375L51.2227 14.8945L54.9961 6.9375H58.5352L52.8633 17.7539V24H49.5938V17.7539L43.9102 6.9375H47.4727ZM61.6523 6.9375H64.4414L69.1055 19.7812L73.7578 6.9375H76.5586L70.2188 24H67.9805L61.6523 6.9375ZM60.2461 6.9375H62.9766L63.4688 18.7383V24H60.2461V6.9375ZM75.2227 6.9375H77.9648V24H74.7422V18.7383L75.2227 6.9375Z" fill="url(#paint0_linear_155_387)"/>
<path fill-rule="evenodd" clip-rule="evenodd" d="M93.9775 9.38477L96.6147 12.022L90.021 18.6156L87.3839 15.9785L93.9775 9.38477Z" stroke="#FDFDFD" stroke-width="1.5" stroke-linecap="round" stroke-linejoin="round"/>
<path fill-rule="evenodd" clip-rule="evenodd" d="M83.4289 13.3407C83.7928 12.9767 84.3829 12.9767 84.7469 13.3407L92.6597 21.2535C93.0237 21.6175 93.0237 22.2076 92.6597 22.5715L91.9999 23.2314C91.6359 23.5954 91.0458 23.5954 90.6819 23.2314L82.769 15.3186C82.4051 14.9546 82.4051 14.3645 82.769 14.0005L83.4289 13.3407Z" stroke="#FDFDFD" stroke-width="1.5" stroke-linecap="round" stroke-linejoin="round"/>
<path fill-rule="evenodd" clip-rule="evenodd" d="M83.4289 17.2967C83.7928 16.9328 84.3829 16.9328 84.7469 17.2967L88.704 21.2538C89.0679 21.6177 89.0679 22.2078 88.704 22.5718L88.0441 23.2317C87.6801 23.5956 87.09 23.5956 86.7261 23.2317L82.769 19.2746C82.4051 18.9106 82.4051 18.3205 82.769 17.9566L83.4289 17.2967Z" stroke="#FDFDFD" stroke-width="1.5" stroke-linecap="round" stroke-linejoin="round"/>
<path fill-rule="evenodd" clip-rule="evenodd" d="M100.571 14.6603C100.207 15.0243 99.6171 15.0243 99.2531 14.6603L91.3403 6.74748C90.9763 6.38351 90.9763 5.7934 91.3403 5.42943L92.0001 4.76958C92.3641 4.40561 92.9542 4.40561 93.3181 4.76958L101.231 12.6824C101.595 13.0464 101.595 13.6365 101.231 14.0005L100.571 14.6603Z" stroke="#FDFDFD" stroke-width="1.5" stroke-linecap="round" stroke-linejoin="round"/>
<path fill-rule="evenodd" clip-rule="evenodd" d="M100.571 10.7033C100.207 11.0672 99.6171 11.0672 99.2531 10.7033L95.296 6.74624C94.9321 6.38227 94.9321 5.79216 95.296 5.42819L95.9559 4.76834C96.3199 4.40437 96.91 4.40437 97.2739 4.76834L101.231 8.72539C101.595 9.08936 101.595 9.67947 101.231 10.0434L100.571 10.7033Z" stroke="#FDFDFD" stroke-width="1.5" stroke-linecap="round" stroke-linejoin="round"/>
<defs>
<linearGradient id="paint0_linear_155_387" x1="40" y1="0" x2="40" y2="31" gradientUnits="userSpaceOnUse">
<stop stop-color="#0239FE"/>
<stop offset="1" stop-color="#0285FE"/>
</linearGradient>
</defs>
</svg>
