<svg width="16" height="16" viewBox="0 0 16 16" fill="none" xmlns="http://www.w3.org/2000/svg">
<path d="M13.0888 5.33169C13.0975 5.44835 13.0975 5.56435 13.0975 5.68035C13.0975 9.23035 10.3955 13.321 5.4575 13.321C3.93616 13.321 2.52283 12.8804 1.3335 12.115C1.5495 12.1397 1.7575 12.1484 1.98216 12.1484C3.19082 12.1513 4.36526 11.7471 5.31616 11.001C4.75578 10.9909 4.21255 10.806 3.76232 10.4722C3.3121 10.1384 2.97735 9.67229 2.80483 9.13902C2.97083 9.16369 3.1375 9.18036 3.31216 9.18036C3.55283 9.18036 3.79483 9.14702 4.0195 9.08902C3.41134 8.96623 2.86448 8.63659 2.47191 8.15614C2.07934 7.6757 1.86529 7.07412 1.86616 6.45369V6.42035C2.22416 6.61969 2.6395 6.74435 3.0795 6.76102C2.71089 6.51608 2.40864 6.1837 2.19972 5.79355C1.9908 5.40339 1.8817 4.96759 1.88216 4.52502C1.88216 4.02635 2.01483 3.56902 2.2475 3.17035C2.92226 4.00037 3.76383 4.6794 4.71772 5.16346C5.67161 5.64752 6.71654 5.92583 7.78483 5.98035C7.7435 5.78035 7.71816 5.57302 7.71816 5.36502C7.71799 5.01233 7.78733 4.66306 7.92221 4.33718C8.0571 4.0113 8.2549 3.7152 8.50429 3.46581C8.75368 3.21642 9.04978 3.01863 9.37566 2.88374C9.70154 2.74885 10.0508 2.67951 10.4035 2.67969C11.1768 2.67969 11.8748 3.00369 12.3655 3.52769C12.9667 3.41143 13.5432 3.19197 14.0695 2.87902C13.8691 3.49957 13.4493 4.02576 12.8888 4.35902C13.422 4.29821 13.9431 4.15799 14.4348 3.94302C14.0676 4.47842 13.6125 4.94792 13.0888 5.33169Z" fill="#FDFDFD"/>
</svg>
