<svg width="96" height="96" viewBox="0 0 96 96" fill="none" xmlns="http://www.w3.org/2000/svg">
<path d="M62.4474 54.7493C63.1842 54.0124 63.1842 52.8178 62.4474 52.0809C61.7105 51.3441 60.5159 51.3441 59.779 52.0809L49.7925 62.0675L49.7925 28.8868C49.7925 27.8447 48.9477 27 47.9057 27C46.8636 27 46.0189 27.8447 46.0189 28.8868L46.0189 62.0675L36.0323 52.0809C35.2954 51.3441 34.1008 51.3441 33.3639 52.0809C32.6271 52.8178 32.6271 54.0124 33.3639 54.7493L46.5715 67.9568C46.9169 68.3022 47.3629 68.4857 47.8151 68.5073C47.8453 68.5087 47.8755 68.5094 47.9057 68.5094" fill="#FDFDFD"/>
<path d="M48.6279 68.3663C48.8504 68.2742 49.0589 68.1377 49.2398 67.9568L62.4474 54.7493" fill="#FDFDFD"/>
<path d="M48.6279 68.3663C48.4105 68.4564 48.1726 68.5071 47.9231 68.5094L48.6279 68.3663Z" fill="#FDFDFD"/>
<path d="M62.4474 54.7493L47.9057 68.5094L47.9231 68.5094L48.6279 68.3663L62.4474 54.7493Z" fill="#FDFDFD"/>
</svg>
