<svg width="60" height="60" viewBox="0 0 60 60" fill="none" xmlns="http://www.w3.org/2000/svg">
<path d="M44.4474 36.7493C45.1842 36.0124 45.1842 34.8178 44.4474 34.0809C43.7105 33.3441 42.5159 33.3441 41.779 34.0809L31.7925 44.0675L31.7925 10.8868C31.7925 9.84475 30.9477 9 29.9057 9C28.8636 9 28.0189 9.84475 28.0189 10.8868L28.0189 44.0675L18.0323 34.0809C17.2954 33.3441 16.1008 33.3441 15.3639 34.0809C14.6271 34.8178 14.6271 36.0124 15.3639 36.7493L28.5715 49.9568C28.9169 50.3022 29.3629 50.4857 29.8151 50.5073C29.8453 50.5087 29.8755 50.5094 29.9057 50.5094" fill="#FDFDFD"/>
<path d="M30.6279 50.3663C30.8504 50.2742 31.0589 50.1377 31.2398 49.9568L44.4474 36.7493" fill="#FDFDFD"/>
<path d="M30.6279 50.3663C30.4105 50.4564 30.1726 50.5071 29.9231 50.5094L30.6279 50.3663Z" fill="#FDFDFD"/>
<path d="M44.4474 36.7493L29.9057 50.5094L29.9231 50.5094L30.6279 50.3663L44.4474 36.7493Z" fill="#FDFDFD"/>
</svg>
