<svg width="72" height="72" viewBox="0 0 72 72" fill="none" xmlns="http://www.w3.org/2000/svg">
<path d="M37.6806 24.1713C37.1501 23.6408 36.29 23.6408 35.7594 24.1713C35.2289 24.7019 35.2289 25.562 35.7594 26.0925L42.9498 33.2829H19.0597C18.3094 33.2829 17.7012 33.8911 17.7012 34.6414C17.7012 35.3916 18.3094 35.9999 19.0597 35.9999H42.9498L35.7594 43.1902C35.2289 43.7207 35.2289 44.5809 35.7594 45.1114C36.29 45.6419 37.1501 45.6419 37.6806 45.1114L47.1901 35.602C47.4388 35.3533 47.5709 35.0322 47.5864 34.7065C47.5874 34.6848 47.588 34.6631 47.588 34.6414" fill="#FDFDFD"/>
<path d="M47.4849 34.1214C47.4186 33.9611 47.3203 33.811 47.1901 33.6808L37.6806 24.1713" fill="#FDFDFD"/>
<path d="M47.4849 34.1214C47.5498 34.2779 47.5863 34.4492 47.5879 34.6288L47.4849 34.1214Z" fill="#FDFDFD"/>
<path d="M37.6806 24.1713L47.588 34.6414L47.5879 34.6288L47.4849 34.1214L37.6806 24.1713Z" fill="#FDFDFD"/>
</svg>
