<svg width="48" height="48" viewBox="0 0 48 48" fill="none" xmlns="http://www.w3.org/2000/svg">
<path d="M25.6806 12.1713C25.1501 11.6408 24.29 11.6408 23.7594 12.1713C23.2289 12.7019 23.2289 13.562 23.7594 14.0925L30.9498 21.2829L7.05966 21.2829C6.30939 21.2829 5.70117 21.8911 5.70117 22.6414C5.70117 23.3916 6.30939 23.9999 7.05966 23.9999L30.9498 23.9999L23.7594 31.1902C23.2289 31.7207 23.2289 32.5809 23.7594 33.1114C24.29 33.6419 25.1501 33.6419 25.6806 33.1114L35.1901 23.602C35.4388 23.3533 35.5709 23.0322 35.5864 22.7065C35.5874 22.6848 35.588 22.6631 35.588 22.6414" fill="#FDFDFD"/>
<path d="M35.4849 22.1214C35.4186 21.9611 35.3203 21.811 35.1901 21.6808L25.6806 12.1713" fill="#FDFDFD"/>
<path d="M35.4849 22.1214C35.5498 22.2779 35.5863 22.4492 35.5879 22.6288L35.4849 22.1214Z" fill="#FDFDFD"/>
<path d="M25.6806 12.1713L35.588 22.6414L35.5879 22.6288L35.4849 22.1214L25.6806 12.1713Z" fill="#FDFDFD"/>
</svg>
