<?xml version="1.0" standalone="no"?>
<!DOCTYPE svg PUBLIC "-//W3C//DTD SVG 20010904//EN"
 "http://www.w3.org/TR/2001/REC-SVG-20010904/DTD/svg10.dtd">
<svg version="1.0" xmlns="http://www.w3.org/2000/svg"
 width="592.000000pt" height="592.000000pt" viewBox="0 0 592.000000 592.000000"
 preserveAspectRatio="xMidYMid meet">
<metadata>
Created by potrace 1.14, written by Peter Selinger 2001-2017
</metadata>
<g transform="translate(0.000000,592.000000) scale(0.100000,-0.100000)"
fill="#000000" stroke="none">
<path d="M5135 4879 c-134 -24 -201 -54 -306 -134 -48 -37 -89 -53 -290 -118
-129 -42 -247 -79 -264 -83 -60 -14 -154 -63 -191 -101 -20 -21 -51 -67 -68
-103 -25 -55 -30 -77 -31 -151 -1 -62 -6 -93 -18 -110 -10 -13 -17 -32 -17
-42 0 -10 -9 -30 -20 -44 -13 -17 -17 -30 -11 -41 5 -10 -4 -50 -26 -116 -42
-127 -62 -145 -225 -216 -68 -29 -159 -70 -203 -91 -76 -35 -243 -96 -287
-104 -12 -3 -35 -9 -52 -14 -17 -6 -51 -13 -76 -16 -25 -3 -52 -8 -60 -10 -8
-2 -38 -7 -66 -10 -49 -5 -64 -8 -129 -21 -16 -3 -74 -21 -128 -40 -54 -19
-100 -34 -103 -34 -11 0 -2 19 19 41 84 87 129 164 147 254 8 37 20 65 31 73
11 7 19 18 19 24 0 5 9 23 20 38 11 15 20 39 20 52 0 47 3 63 17 79 8 9 15 26
16 38 1 11 5 21 9 21 4 0 6 42 5 94 -1 52 -5 92 -9 89 -5 -2 -8 -1 -9 4 -5 71
-16 129 -30 154 -5 11 -6 20 0 24 16 9 -24 91 -48 97 -18 4 -58 41 -54 50 2 4
-6 9 -17 13 -11 4 -18 11 -15 16 4 5 1 9 -5 9 -6 0 -8 5 -4 12 4 6 3 8 -3 5
-6 -4 -23 11 -38 34 -21 29 -31 36 -36 27 -7 -10 -9 -9 -9 3 0 10 -11 19 -27
22 -16 4 -46 23 -68 43 -53 48 -82 67 -125 81 -45 16 -59 16 -92 -1 -15 -8
-40 -17 -57 -21 -16 -3 -35 -13 -42 -21 -6 -8 -17 -14 -25 -14 -7 0 -20 -10
-28 -22 -9 -12 -16 -19 -16 -15 0 15 -26 -18 -41 -50 -7 -18 -18 -33 -22 -33
-5 0 -5 -5 -2 -10 3 -6 -3 -24 -15 -40 -12 -17 -19 -30 -16 -30 11 0 -54 -131
-79 -157 -14 -15 -30 -44 -36 -63 -7 -19 -15 -39 -19 -45 -11 -14 -28 -92 -33
-150 -1 -16 -6 -36 -10 -42 -5 -7 -4 -13 1 -13 5 0 6 -17 2 -39 -4 -21 -3 -45
1 -53 4 -8 2 -25 -6 -39 -34 -59 -58 -131 -70 -214 -8 -54 -89 -189 -125 -207
-14 -6 -32 -18 -41 -25 -8 -7 -44 -15 -80 -18 -93 -7 -118 -14 -179 -48 -123
-69 -159 -104 -175 -167 -3 -14 -17 -50 -30 -80 -73 -172 -87 -206 -103 -268
-11 -37 -20 -98 -21 -136 -1 -38 -8 -81 -16 -96 -8 -15 -12 -30 -9 -33 3 -2
-9 -46 -26 -97 -16 -51 -30 -101 -30 -112 0 -10 -6 -29 -14 -41 -16 -25 -34
-104 -43 -187 -3 -30 -7 -59 -8 -65 -1 -5 -5 -27 -9 -47 -6 -26 -28 -58 -75
-108 -36 -38 -71 -70 -78 -70 -6 0 -14 -9 -18 -19 -5 -17 -21 -30 -35 -28 -3
1 -17 -11 -32 -26 -15 -15 -34 -27 -43 -27 -8 0 -15 -4 -15 -10 0 -5 -8 -10
-17 -10 -23 0 -141 -76 -179 -115 -50 -52 -102 -120 -125 -166 -13 -24 -25
-46 -28 -49 -9 -8 -59 -99 -91 -165 -29 -59 -34 -79 -46 -160 -4 -22 -10 -45
-15 -51 -16 -20 -19 -78 -5 -99 8 -13 15 -70 19 -159 4 -76 9 -142 12 -145 4
-3 191 -6 416 -6 l409 0 0 26 c0 22 5 26 30 27 17 0 39 4 50 7 18 6 77 -19
119 -50 15 -11 1461 -15 1461 -4 0 6 -87 85 -175 160 -22 19 -45 39 -51 44 -7
6 -51 37 -99 70 -91 62 -220 158 -267 197 -15 13 -51 38 -82 56 -49 30 -68 38
-101 42 -5 0 -18 7 -29 15 -15 11 -18 26 -17 72 3 103 4 111 46 253 10 32 33
64 77 110 35 36 79 92 97 124 19 32 45 68 58 79 12 11 23 27 23 34 0 7 4 13 9
13 5 0 11 9 14 19 3 11 20 26 38 34 19 8 40 21 48 30 7 10 19 17 25 17 33 1
156 144 156 183 0 7 4 17 9 23 5 5 12 27 15 49 4 22 17 89 31 150 14 60 25
113 25 117 0 3 6 13 13 20 6 7 32 40 56 73 53 72 77 96 114 113 39 17 143 15
224 -4 50 -12 94 -14 168 -10 87 5 140 11 140 16 0 1 7 3 15 5 8 2 57 17 108
34 58 19 109 30 135 28 36 -2 67 11 207 82 151 77 239 130 281 170 9 9 31 27
49 41 18 14 39 32 48 40 8 8 32 28 51 43 20 16 61 52 91 80 82 78 120 103 174
116 45 11 50 11 65 -10 67 -90 122 -133 210 -164 112 -39 236 -15 346 69 54
42 57 44 83 65 13 11 42 34 64 53 23 18 108 88 189 156 81 67 153 122 161 122
32 1 148 53 208 93 64 43 186 172 219 232 49 85 62 140 62 245 -1 88 -5 111
-33 194 -20 60 -96 226 -108 236 -3 3 -23 29 -44 57 -39 55 -152 163 -169 163
-6 0 -18 6 -26 14 -9 7 -42 23 -75 35 -76 28 -193 32 -311 10z m-568 -608 c24
-12 28 -24 38 -111 9 -80 32 -156 71 -230 39 -75 91 -141 151 -191 71 -59 66
-99 -26 -227 -94 -131 -101 -137 -145 -122 -19 6 -40 18 -47 27 -11 13 -8 20
19 44 36 33 51 81 32 104 -7 9 -8 15 -2 15 12 0 25 47 17 61 -4 5 -12 3 -21
-5 -18 -18 -44 -10 -44 13 0 9 -6 23 -12 29 -9 9 -10 15 -2 20 30 19 36 77 8
71 -21 -4 -34 2 -34 16 0 8 -9 24 -20 35 -11 11 -20 31 -20 45 0 15 -6 25 -14
25 -16 0 -31 34 -22 49 9 14 -34 62 -53 59 -9 -2 -27 9 -39 24 -14 16 -34 28
-48 28 -24 0 -32 14 -14 25 6 3 10 13 10 21 0 11 -9 13 -44 9 -39 -6 -44 -4
-50 17 -13 51 -6 96 19 127 23 27 33 30 88 33 110 5 182 2 204 -11z"/>
</g>
</svg>
