<svg width="533" height="498" viewBox="0 0 533 498" fill="none" xmlns="http://www.w3.org/2000/svg">
<g filter="url(#filter0_f_186_803)">
<ellipse cx="73.1713" cy="110.799" rx="73.1713" ry="110.799" transform="matrix(-0.229717 0.973257 -0.973104 -0.230365 399.132 196.63)" fill="url(#paint0_linear_186_803)"/>
</g>
<mask id="mask0_186_803" style="mask-type:alpha" maskUnits="userSpaceOnUse" x="116" y="138" width="366" height="260">
<path d="M116.967 138.511L133.213 350.328L321.674 395.222L387.724 397.441L481.882 305.962L469.468 213.294L274.955 167.247L116.967 138.511Z" fill="url(#paint1_linear_186_803)"/>
</mask>
<g mask="url(#mask0_186_803)">
</g>
<mask id="mask1_186_803" style="mask-type:alpha" maskUnits="userSpaceOnUse" x="101" y="133" width="389" height="295">
<path d="M489.446 213.271C467.587 305.221 439.684 422.515 438.958 427.18L101.634 347.324L152.123 133.416L489.446 213.271Z" fill="url(#paint2_linear_186_803)"/>
</mask>
<g mask="url(#mask1_186_803)">
<path d="M318.141 367.27C277.245 363.825 245.679 327.192 248.206 296.946C250.734 266.699 270.606 228.401 314.484 232.097C336.228 233.929 364.319 215.934 388.894 233.172C413.91 250.719 404.484 291.468 403.209 306.725C400.681 336.971 359.038 370.715 318.141 367.27Z" fill="url(#paint3_linear_186_803)"/>
<g filter="url(#filter1_f_186_803)">
<path d="M305.144 361.96C264.341 352.301 241.823 317.071 247.815 291.684C253.807 266.297 277.066 236.626 317.869 246.285C338.089 251.072 366.801 239.253 387.84 257.582C409.257 276.24 395.524 309.549 392.501 322.355C386.509 347.742 345.948 371.62 305.144 361.96Z" fill="url(#paint4_linear_186_803)"/>
</g>
<g filter="url(#filter2_f_186_803)">
<path d="M303.907 361.667C258.175 350.84 233.686 308.181 241.073 276.882C248.461 245.583 275.41 208.593 321.142 219.419C343.805 224.784 377.14 206.646 400.386 228.606C424.05 250.961 407.117 294.821 403.391 310.61C396.003 341.909 349.64 372.493 303.907 361.667Z" fill="url(#paint5_linear_186_803)"/>
</g>
<g filter="url(#filter3_f_186_803)">
<path d="M299.505 356.71C244.855 335.666 207.666 283.999 216.312 247.368C224.959 210.736 262.963 177.92 317.81 190.904C344.99 197.338 389.352 165.685 417.338 191.571C445.826 217.922 426.56 266.114 422.198 284.592C413.552 321.224 362.815 381.088 299.505 356.71Z" fill="url(#paint6_linear_186_803)"/>
</g>
<g filter="url(#filter4_f_186_803)">
<path d="M283.981 337.382C224.925 323.402 185.224 264.17 193.678 228.355C202.131 192.541 242.126 161.128 301.182 175.108C330.447 182.036 369.206 176.78 399.766 202.846C430.875 229.38 411.298 276.322 407.033 294.388C398.58 330.203 343.037 351.363 283.981 337.382Z" fill="url(#paint7_linear_186_803)"/>
</g>
<g filter="url(#filter5_f_186_803)">
<path d="M264.37 317.645C203.341 303.197 162.196 242.488 170.842 205.856C179.488 169.225 220.723 137.173 281.751 151.621C311.994 158.78 352.014 153.493 383.639 180.241C415.833 207.469 395.724 255.461 391.362 273.939C382.716 310.571 325.398 332.092 264.37 317.645Z" fill="url(#paint8_linear_186_803)"/>
</g>
<g filter="url(#filter6_f_186_803)">
<path d="M308.897 334.337C255.497 321.695 220.919 262.54 229.565 225.908C238.211 189.277 275.46 156.282 328.86 168.923C355.322 175.188 389.752 173.05 416.886 198.734C444.507 224.88 425.438 273.118 421.076 291.597C412.43 328.228 362.297 346.978 308.897 334.337Z" fill="url(#paint9_linear_186_803)"/>
</g>
</g>
<g filter="url(#filter7_f_186_803)">
<path d="M376.222 221.046C378.05 233.317 365.466 258.375 350.165 284.348L341.6 320.638C334.148 352.208 286.163 331.814 248.897 303.677C211.631 275.541 212.475 276.675 220.77 246.24C229.065 215.805 205.179 226.35 183.31 207.154C161.441 187.959 208.144 224.139 241.876 207.203C275.607 190.266 258.066 181.238 296.369 210.866C334.672 240.494 335.352 229.75 339.314 218.851C343.276 207.952 330.643 204.96 334.397 194.945C338.15 184.93 342.562 190.959 358.61 200.677C374.657 210.395 374.394 208.776 376.222 221.046Z" fill="#120ECF"/>
</g>
<mask id="mask2_186_803" style="mask-type:alpha" maskUnits="userSpaceOnUse" x="217" y="74" width="220" height="322">
<path d="M217.358 395.845L422.835 359.427L436.751 200.377L428.494 145.219L324.17 74.3246L235.114 94.6686L220.619 261.377L217.358 395.845Z" fill="url(#paint10_linear_186_803)"/>
</mask>
<g mask="url(#mask2_186_803)">
<mask id="mask3_186_803" style="mask-type:alpha" maskUnits="userSpaceOnUse" x="213" y="80" width="229" height="315">
<path d="M240.371 80.0585C334.137 88.2879 436.477 97.309 441.173 97.4086L414.038 394.986L213.236 377.636L240.371 80.0585Z" fill="url(#paint11_linear_186_803)"/>
</mask>
<g mask="url(#mask3_186_803)">
<path d="M409.639 215.828C406.804 248.436 370.836 272.949 340.726 270.347C310.616 267.746 272.249 251.132 275.291 216.147C276.798 198.811 258.501 176.021 275.286 156.72C292.372 137.071 333.024 145.387 348.213 146.699C378.323 149.301 412.474 183.221 409.639 215.828Z" fill="#02D1FE"/>
<g filter="url(#filter8_f_186_803)">
<path d="M407.094 215.215C404.054 250.186 375.803 272.961 352.427 270.941C329.051 268.921 299.521 253.076 302.561 218.106C304.068 200.776 289.663 178.332 303.094 158.749C316.766 138.814 348.234 146.334 360.026 147.353C383.403 149.373 410.135 180.245 407.094 215.215Z" fill="#02D1FE"/>
</g>
<g filter="url(#filter9_f_186_803)">
<path d="M407.002 216.275C403.594 255.47 368.959 280.739 340.094 278.245C311.229 275.751 274.635 257.69 278.043 218.495C279.732 199.071 259.047 173.524 275.427 151.689C292.102 129.463 333.447 138.417 348.008 139.675C376.873 142.169 410.41 177.079 407.002 216.275Z" fill="#02D1FE"/>
</g>
<g filter="url(#filter10_f_186_803)">
<path d="M397.179 219.998C385.144 267.713 340.274 304.222 302.929 300.995C265.584 297.768 227.347 269.719 231.434 222.712C233.459 199.418 195.361 165.956 216.364 139.887C237.745 113.35 305.709 122.035 324.548 123.662C361.893 126.889 411.12 164.722 397.179 219.998Z" fill="#02D1FE"/>
</g>
<g filter="url(#filter11_f_186_803)">
<path d="M386.613 231.856C382.212 282.47 329.994 325.5 293.482 322.346C256.969 319.191 219.796 289.334 224.197 238.72C226.378 213.638 215.091 181.98 235.864 153.752C257.011 125.017 334.005 116.766 352.424 118.358C388.936 121.512 391.013 181.241 386.613 231.856Z" fill="#02D1FE"/>
</g>
<g filter="url(#filter12_f_186_803)">
<path d="M370.011 253.911C365.463 306.216 312.336 346.993 274.991 343.766C237.646 340.539 199.65 309.721 204.198 257.416C206.451 231.496 260.339 197.161 281.613 167.973C303.27 138.26 353.584 149.789 372.423 151.417C409.768 154.644 374.559 201.606 370.011 253.911Z" fill="#02D1FE"/>
</g>
<g filter="url(#filter13_f_186_803)">
<path d="M379.37 215.083C375.391 260.85 322.752 295.998 285.407 292.772C248.062 289.545 209.77 262.143 213.749 216.376C215.72 193.696 208.181 165.301 229.12 139.962C250.436 114.168 300.828 124.806 319.667 126.434C357.012 129.661 383.349 169.316 379.37 215.083Z" fill="#02D1FE"/>
</g>
</g>
</g>
<mask id="mask4_186_803" style="mask-type:alpha" maskUnits="userSpaceOnUse" x="61" y="80" width="411" height="337">
<path d="M100.997 416.738C88.416 323.939 62.9978 137.2 61.9739 132.634L432.257 80.92L471.281 365.025L100.997 416.738Z" fill="url(#paint12_linear_186_803)"/>
</mask>
<g mask="url(#mask4_186_803)">
<path d="M219.293 123.3C259.148 126.429 300.733 145.79 304.825 175.579C308.916 205.368 297.38 246.821 252.572 253.079C230.367 256.18 233.806 275.995 205.388 264.845C176.459 253.495 176.985 212.014 174.921 196.987C170.829 167.198 179.438 120.17 219.293 123.3Z" fill="#438EFF"/>
<g filter="url(#filter14_f_186_803)">
<path d="M224.373 124.372C290.36 136.647 299.91 143.75 303.427 169.356C306.944 194.961 294.661 230.924 249.871 237.179C227.675 240.279 231.365 257.887 203.243 248.819C174.616 239.588 175.824 203.085 174.049 190.168C170.532 164.563 191.547 116.601 224.373 124.372Z" fill="#438EFF"/>
</g>
<g filter="url(#filter15_f_186_803)">
<path d="M220.499 125.733C298.049 130.632 335.312 169.29 339.648 200.858C343.984 232.427 306.886 256.126 256.685 263.137C231.808 266.612 251.836 289.156 220.121 277.563C187.836 265.763 182.535 215.97 180.347 200.046C176.011 168.477 170.298 132.744 220.499 125.733Z" fill="#438EFF"/>
</g>
<g filter="url(#filter16_f_186_803)">
<path d="M226.806 128.662C295.239 131.924 367.27 166.9 372.345 203.847C377.419 240.793 330.991 279.751 270.785 288.159C240.95 292.326 254.945 331.412 216.972 317.964C178.316 304.274 179.599 252.737 177.039 234.1C171.964 197.153 158.374 125.4 226.806 128.662Z" fill="#438EFF"/>
</g>
<g filter="url(#filter17_f_186_803)">
<path d="M276.874 140.155C378.63 164.244 380.121 166.826 385.082 202.949C390.044 239.072 358.33 287.48 293.504 296.534C261.379 301.02 252.619 295.665 211.982 283.006C170.615 270.121 173.354 210.148 170.851 191.926C165.89 155.803 217.864 126.185 276.874 140.155Z" fill="#438EFF"/>
</g>
<g filter="url(#filter18_f_186_803)">
<path d="M276.954 151.594C343.946 142.238 408.306 182.871 413.381 219.818C418.455 256.765 388.938 301.594 321.946 310.95C288.748 315.587 232.681 324.825 190.713 311.935C147.99 298.813 193.438 220.196 190.878 201.558C185.803 164.612 209.962 160.95 276.954 151.594Z" fill="#438EFF"/>
</g>
<g filter="url(#filter19_f_186_803)">
<path d="M225.759 152.757C284.377 144.57 341.528 186.21 346.603 223.157C351.678 260.103 326.536 304.322 267.918 312.509C238.87 316.565 260.28 323.592 223.241 310.013C185.537 296.19 186.604 244.684 184.044 226.046C178.97 189.1 167.142 160.943 225.759 152.757Z" fill="#438EFF"/>
</g>
</g>
<g opacity="0.6" filter="url(#filter20_f_186_803)">
<path d="M269.548 299.011C222.716 287.924 178.683 232.708 184.329 208.787C189.975 184.865 168.034 122.169 272.545 197.366C319.376 208.452 385.839 175.182 353.921 248.934C348.275 272.856 305.658 234.968 269.548 299.011Z" fill="url(#paint13_linear_186_803)"/>
</g>
<defs>
<filter id="filter0_f_186_803" x="123.287" y="124.57" width="302.433" height="235.5" filterUnits="userSpaceOnUse" color-interpolation-filters="sRGB">
<feFlood flood-opacity="0" result="BackgroundImageFix"/>
<feBlend mode="normal" in="SourceGraphic" in2="BackgroundImageFix" result="shape"/>
<feGaussianBlur stdDeviation="21.0396" result="effect1_foregroundBlur_186_803"/>
</filter>
<filter id="filter1_f_186_803" x="245.175" y="242.732" width="156.13" height="123.106" filterUnits="userSpaceOnUse" color-interpolation-filters="sRGB">
<feFlood flood-opacity="0" result="BackgroundImageFix"/>
<feBlend mode="normal" in="SourceGraphic" in2="BackgroundImageFix" result="shape"/>
<feGaussianBlur stdDeviation="0.841584" result="effect1_foregroundBlur_186_803"/>
</filter>
<filter id="filter2_f_186_803" x="233.881" y="211.54" width="184.752" height="158.242" filterUnits="userSpaceOnUse" color-interpolation-filters="sRGB">
<feFlood flood-opacity="0" result="BackgroundImageFix"/>
<feBlend mode="normal" in="SourceGraphic" in2="BackgroundImageFix" result="shape"/>
<feGaussianBlur stdDeviation="2.94554" result="effect1_foregroundBlur_186_803"/>
</filter>
<filter id="filter3_f_186_803" x="206.649" y="172.812" width="234.382" height="197.986" filterUnits="userSpaceOnUse" color-interpolation-filters="sRGB">
<feFlood flood-opacity="0" result="BackgroundImageFix"/>
<feBlend mode="normal" in="SourceGraphic" in2="BackgroundImageFix" result="shape"/>
<feGaussianBlur stdDeviation="4.20792" result="effect1_foregroundBlur_186_803"/>
</filter>
<filter id="filter4_f_186_803" x="169.822" y="148.988" width="269.932" height="215.465" filterUnits="userSpaceOnUse" color-interpolation-filters="sRGB">
<feFlood flood-opacity="0" result="BackgroundImageFix"/>
<feBlend mode="normal" in="SourceGraphic" in2="BackgroundImageFix" result="shape"/>
<feGaussianBlur stdDeviation="11.3614" result="effect1_foregroundBlur_186_803"/>
</filter>
<filter id="filter5_f_186_803" x="113.309" y="91.691" width="344.645" height="286.878" filterUnits="userSpaceOnUse" color-interpolation-filters="sRGB">
<feFlood flood-opacity="0" result="BackgroundImageFix"/>
<feBlend mode="normal" in="SourceGraphic" in2="BackgroundImageFix" result="shape"/>
<feGaussianBlur stdDeviation="28.1931" result="effect1_foregroundBlur_186_803"/>
</filter>
<filter id="filter6_f_186_803" x="202.153" y="140.084" width="255.486" height="224.278" filterUnits="userSpaceOnUse" color-interpolation-filters="sRGB">
<feFlood flood-opacity="0" result="BackgroundImageFix"/>
<feBlend mode="normal" in="SourceGraphic" in2="BackgroundImageFix" result="shape"/>
<feGaussianBlur stdDeviation="13.0446" result="effect1_foregroundBlur_186_803"/>
</filter>
<filter id="filter7_f_186_803" x="149.076" y="161.176" width="255.937" height="204.03" filterUnits="userSpaceOnUse" color-interpolation-filters="sRGB">
<feFlood flood-opacity="0" result="BackgroundImageFix"/>
<feBlend mode="normal" in="SourceGraphic" in2="BackgroundImageFix" result="shape"/>
<feGaussianBlur stdDeviation="14.3069" result="effect1_foregroundBlur_186_803"/>
</filter>
<filter id="filter8_f_186_803" x="295.634" y="143.439" width="113.381" height="129.31" filterUnits="userSpaceOnUse" color-interpolation-filters="sRGB">
<feFlood flood-opacity="0" result="BackgroundImageFix"/>
<feBlend mode="normal" in="SourceGraphic" in2="BackgroundImageFix" result="shape"/>
<feGaussianBlur stdDeviation="0.841584" result="effect1_foregroundBlur_186_803"/>
</filter>
<filter id="filter9_f_186_803" x="263.187" y="130.946" width="149.947" height="153.359" filterUnits="userSpaceOnUse" color-interpolation-filters="sRGB">
<feFlood flood-opacity="0" result="BackgroundImageFix"/>
<feBlend mode="normal" in="SourceGraphic" in2="BackgroundImageFix" result="shape"/>
<feGaussianBlur stdDeviation="2.94554" result="effect1_foregroundBlur_186_803"/>
</filter>
<filter id="filter10_f_186_803" x="201.611" y="112.593" width="206.404" height="197.016" filterUnits="userSpaceOnUse" color-interpolation-filters="sRGB">
<feFlood flood-opacity="0" result="BackgroundImageFix"/>
<feBlend mode="normal" in="SourceGraphic" in2="BackgroundImageFix" result="shape"/>
<feGaussianBlur stdDeviation="4.20792" result="effect1_foregroundBlur_186_803"/>
</filter>
<filter id="filter11_f_186_803" x="200.335" y="95.4471" width="210.669" height="249.784" filterUnits="userSpaceOnUse" color-interpolation-filters="sRGB">
<feFlood flood-opacity="0" result="BackgroundImageFix"/>
<feBlend mode="normal" in="SourceGraphic" in2="BackgroundImageFix" result="shape"/>
<feGaussianBlur stdDeviation="11.3614" result="effect1_foregroundBlur_186_803"/>
</filter>
<filter id="filter12_f_186_803" x="147.44" y="91.4771" width="298.356" height="308.854" filterUnits="userSpaceOnUse" color-interpolation-filters="sRGB">
<feFlood flood-opacity="0" result="BackgroundImageFix"/>
<feBlend mode="normal" in="SourceGraphic" in2="BackgroundImageFix" result="shape"/>
<feGaussianBlur stdDeviation="28.1931" result="effect1_foregroundBlur_186_803"/>
</filter>
<filter id="filter13_f_186_803" x="187.374" y="96.7966" width="218.482" height="222.27" filterUnits="userSpaceOnUse" color-interpolation-filters="sRGB">
<feFlood flood-opacity="0" result="BackgroundImageFix"/>
<feBlend mode="normal" in="SourceGraphic" in2="BackgroundImageFix" result="shape"/>
<feGaussianBlur stdDeviation="13.0446" result="effect1_foregroundBlur_186_803"/>
</filter>
<filter id="filter14_f_186_803" x="171.983" y="121.847" width="133.693" height="131.224" filterUnits="userSpaceOnUse" color-interpolation-filters="sRGB">
<feFlood flood-opacity="0" result="BackgroundImageFix"/>
<feBlend mode="normal" in="SourceGraphic" in2="BackgroundImageFix" result="shape"/>
<feGaussianBlur stdDeviation="0.841584" result="effect1_foregroundBlur_186_803"/>
</filter>
<filter id="filter15_f_186_803" x="171.729" y="119.842" width="174.155" height="166.897" filterUnits="userSpaceOnUse" color-interpolation-filters="sRGB">
<feFlood flood-opacity="0" result="BackgroundImageFix"/>
<feBlend mode="normal" in="SourceGraphic" in2="BackgroundImageFix" result="shape"/>
<feGaussianBlur stdDeviation="2.94554" result="effect1_foregroundBlur_186_803"/>
</filter>
<filter id="filter16_f_186_803" x="164.047" y="120.139" width="217.093" height="209.044" filterUnits="userSpaceOnUse" color-interpolation-filters="sRGB">
<feFlood flood-opacity="0" result="BackgroundImageFix"/>
<feBlend mode="normal" in="SourceGraphic" in2="BackgroundImageFix" result="shape"/>
<feGaussianBlur stdDeviation="4.20792" result="effect1_foregroundBlur_186_803"/>
</filter>
<filter id="filter17_f_186_803" x="147.8" y="113.903" width="260.51" height="206.919" filterUnits="userSpaceOnUse" color-interpolation-filters="sRGB">
<feFlood flood-opacity="0" result="BackgroundImageFix"/>
<feBlend mode="normal" in="SourceGraphic" in2="BackgroundImageFix" result="shape"/>
<feGaussianBlur stdDeviation="11.3614" result="effect1_foregroundBlur_186_803"/>
</filter>
<filter id="filter18_f_186_803" x="115.936" y="93.8473" width="354.388" height="281.05" filterUnits="userSpaceOnUse" color-interpolation-filters="sRGB">
<feFlood flood-opacity="0" result="BackgroundImageFix"/>
<feBlend mode="normal" in="SourceGraphic" in2="BackgroundImageFix" result="shape"/>
<feGaussianBlur stdDeviation="28.1931" result="effect1_foregroundBlur_186_803"/>
</filter>
<filter id="filter19_f_186_803" x="153.45" y="125.627" width="219.879" height="218.44" filterUnits="userSpaceOnUse" color-interpolation-filters="sRGB">
<feFlood flood-opacity="0" result="BackgroundImageFix"/>
<feBlend mode="normal" in="SourceGraphic" in2="BackgroundImageFix" result="shape"/>
<feGaussianBlur stdDeviation="13.0446" result="effect1_foregroundBlur_186_803"/>
</filter>
<filter id="filter20_f_186_803" x="148.492" y="126.162" width="249.137" height="208.195" filterUnits="userSpaceOnUse" color-interpolation-filters="sRGB">
<feFlood flood-opacity="0" result="BackgroundImageFix"/>
<feBlend mode="normal" in="SourceGraphic" in2="BackgroundImageFix" result="shape"/>
<feGaussianBlur stdDeviation="17.6733" result="effect1_foregroundBlur_186_803"/>
</filter>
<linearGradient id="paint0_linear_186_803" x1="73.1713" y1="0" x2="73.1713" y2="221.599" gradientUnits="userSpaceOnUse">
<stop stop-color="#0239FE"/>
<stop offset="1" stop-color="#0285FE"/>
</linearGradient>
<linearGradient id="paint1_linear_186_803" x1="323.282" y1="286.866" x2="422.438" y2="238.636" gradientUnits="userSpaceOnUse">
<stop stop-color="#C4C4C4"/>
<stop offset="1" stop-color="#C4C4C4" stop-opacity="0"/>
</linearGradient>
<linearGradient id="paint2_linear_186_803" x1="305.92" y1="359.905" x2="336.938" y2="207.269" gradientUnits="userSpaceOnUse">
<stop stop-color="#C4C4C4"/>
<stop offset="1" stop-color="#C4C4C4" stop-opacity="0"/>
</linearGradient>
<linearGradient id="paint3_linear_186_803" x1="404.218" y1="301.683" x2="248.895" y2="288.704" gradientUnits="userSpaceOnUse">
<stop stop-color="#0239FE"/>
<stop offset="1" stop-color="#0285FE"/>
</linearGradient>
<linearGradient id="paint4_linear_186_803" x1="393.961" y1="318.599" x2="249.51" y2="284.504" gradientUnits="userSpaceOnUse">
<stop stop-color="#0239FE"/>
<stop offset="1" stop-color="#0285FE"/>
</linearGradient>
<linearGradient id="paint5_linear_186_803" x1="405.357" y1="305.006" x2="243.455" y2="266.792" gradientUnits="userSpaceOnUse">
<stop stop-color="#0239FE"/>
<stop offset="1" stop-color="#0285FE"/>
</linearGradient>
<linearGradient id="paint6_linear_186_803" x1="422.36" y1="287.176" x2="218.286" y2="239.008" gradientUnits="userSpaceOnUse">
<stop stop-color="#0239FE"/>
<stop offset="1" stop-color="#0285FE"/>
</linearGradient>
<linearGradient id="paint7_linear_186_803" x1="410.88" y1="281.608" x2="193.233" y2="230.237" gradientUnits="userSpaceOnUse">
<stop stop-color="#0239FE"/>
<stop offset="1" stop-color="#0285FE"/>
</linearGradient>
<linearGradient id="paint8_linear_186_803" x1="395.305" y1="260.869" x2="170.387" y2="207.782" gradientUnits="userSpaceOnUse">
<stop stop-color="#0239FE"/>
<stop offset="1" stop-color="#0285FE"/>
</linearGradient>
<linearGradient id="paint9_linear_186_803" x1="425.62" y1="275.527" x2="228.817" y2="229.076" gradientUnits="userSpaceOnUse">
<stop stop-color="#0239FE"/>
<stop offset="1" stop-color="#0285FE"/>
</linearGradient>
<linearGradient id="paint10_linear_186_803" x1="356.718" y1="264.298" x2="357.136" y2="156.683" gradientUnits="userSpaceOnUse">
<stop stop-color="#C4C4C4"/>
<stop offset="0.943414" stop-color="#C4C4C4" stop-opacity="0"/>
</linearGradient>
<linearGradient id="paint11_linear_186_803" x1="374.55" y1="212.337" x2="252.543" y2="188.762" gradientUnits="userSpaceOnUse">
<stop stop-color="#C4C4C4"/>
<stop offset="1" stop-color="#C4C4C4" stop-opacity="0"/>
</linearGradient>
<linearGradient id="paint12_linear_186_803" x1="219.138" y1="128.101" x2="341.416" y2="306.052" gradientUnits="userSpaceOnUse">
<stop stop-color="#C4C4C4"/>
<stop offset="1" stop-color="#C4C4C4" stop-opacity="0"/>
</linearGradient>
<linearGradient id="paint13_linear_186_803" x1="353.921" y1="248.931" x2="184.303" y2="208.897" gradientUnits="userSpaceOnUse">
<stop offset="0.213542" stop-color="#0073FB"/>
<stop offset="0.567708" stop-color="#65FFED"/>
<stop offset="0.9375" stop-color="#DE58FF"/>
</linearGradient>
</defs>
</svg>
