<svg width="24" height="24" viewBox="0 0 24 24" fill="none" xmlns="http://www.w3.org/2000/svg">
<path fill-rule="evenodd" clip-rule="evenodd" d="M13.9775 7.38477L16.6147 10.022L10.021 16.6156L7.38385 13.9785L13.9775 7.38477Z" stroke="#0239FE" stroke-width="1.5" stroke-linecap="round" stroke-linejoin="round"/>
<path fill-rule="evenodd" clip-rule="evenodd" d="M3.42887 11.3407C3.79284 10.9767 4.38295 10.9767 4.74691 11.3407L12.6597 19.2535C13.0237 19.6175 13.0237 20.2076 12.6597 20.5715L11.9999 21.2314C11.6359 21.5954 11.0458 21.5954 10.6819 21.2314L2.76902 13.3186C2.40505 12.9546 2.40505 12.3645 2.76902 12.0005L3.42887 11.3407Z" stroke="#0239FE" stroke-width="1.5" stroke-linecap="round" stroke-linejoin="round"/>
<path fill-rule="evenodd" clip-rule="evenodd" d="M3.42887 15.2967C3.79284 14.9328 4.38295 14.9328 4.74691 15.2967L8.70396 19.2538C9.06793 19.6177 9.06793 20.2078 8.70396 20.5718L8.04411 21.2317C7.68014 21.5956 7.09003 21.5956 6.72606 21.2317L2.76902 17.2746C2.40505 16.9106 2.40505 16.3205 2.76902 15.9566L3.42887 15.2967Z" stroke="#0239FE" stroke-width="1.5" stroke-linecap="round" stroke-linejoin="round"/>
<path fill-rule="evenodd" clip-rule="evenodd" d="M20.5711 12.6603C20.2072 13.0243 19.6171 13.0243 19.2531 12.6603L11.3403 4.74748C10.9763 4.38351 10.9763 3.7934 11.3403 3.42943L12.0001 2.76958C12.3641 2.40561 12.9542 2.40561 13.3181 2.76958L21.231 10.6824C21.5949 11.0464 21.5949 11.6365 21.231 12.0005L20.5711 12.6603Z" stroke="#0239FE" stroke-width="1.5" stroke-linecap="round" stroke-linejoin="round"/>
<path fill-rule="evenodd" clip-rule="evenodd" d="M20.5711 8.70328C20.2072 9.06725 19.6171 9.06725 19.2531 8.70328L15.296 4.74624C14.9321 4.38227 14.9321 3.79216 15.296 3.42819L15.9559 2.76834C16.3199 2.40437 16.91 2.40437 17.2739 2.76834L21.231 6.72539C21.5949 7.08936 21.5949 7.67947 21.231 8.04343L20.5711 8.70328Z" stroke="#0239FE" stroke-width="1.5" stroke-linecap="round" stroke-linejoin="round"/>
</svg>
