<svg width="24" height="24" viewBox="0 0 24 24" fill="none" xmlns="http://www.w3.org/2000/svg">
<path d="M21.0041 11V16.0021C21.0041 18.7647 18.7646 21.0042 16.002 21.0042H7.99867C5.23609 21.0042 2.99658 18.7647 2.99658 16.0021V15.0017" stroke="#0239FE" stroke-width="1.5" stroke-linecap="round" stroke-linejoin="round"/>
<path d="M13.0007 2.99609H7.99867C5.23609 2.99609 2.99658 5.2356 2.99658 7.99818V8.99859" stroke="#0239FE" stroke-width="1.5" stroke-linecap="round" stroke-linejoin="round"/>
<path d="M18.0028 11.9997H14.2683L12.5346 16.0014L9.06511 7.99805L7.19833 11.9997H2.99658" stroke="#0239FE" stroke-width="1.5" stroke-linecap="round" stroke-linejoin="round"/>
<path fill-rule="evenodd" clip-rule="evenodd" d="M19.0189 3.53153C19.3306 3.18396 19.7777 2.98869 20.2444 2.99631C21.2218 3.02122 22.0018 3.81941 22.0042 4.79706C22.0042 6.60881 19.6092 7.99839 19.0189 7.99839C18.4287 7.99839 16.0337 6.60881 16.0337 4.79706C16.0334 3.81833 16.815 3.0186 17.7934 2.99631C18.2601 2.98909 18.7071 3.18429 19.0189 3.53153Z" stroke="#0239FE" stroke-width="1.5" stroke-linecap="round" stroke-linejoin="round"/>
</svg>
